<svg width="24" height="16" viewBox="0 0 24 16" fill="none" xmlns="http://www.w3.org/2000/svg">
<g id="emojione-v1:flag-for-egypt" clip-path="url(#clip0_1494_74428)">
<path id="Vector" d="M0 5.45459H24V10.5455H0V5.45459Z" fill="#E6E7E8"/>
<path id="Vector_2" d="M20.25 0H3.75C1.26488 0 0 1.79091 0 4V5.45455H24V4C24 1.79091 22.7351 0 20.25 0Z" fill="#EC1C24"/>
<path id="Vector_3" d="M0 12C0 14.209 1.26488 16 3.75 16H20.25C22.7351 16 24 14.209 24 12V10.5454H0V12Z" fill="#25333A"/>
<g id="Group">
<path id="Vector_4" fill-rule="evenodd" clip-rule="evenodd" d="M13.7408 6.69387C13.7775 7.01969 13.7768 7.34623 13.7929 7.67351C13.8236 8.29896 13.8476 8.92733 13.8739 9.5546V9.66805C13.6763 9.48769 13.4951 9.32405 13.3159 9.1586C13.311 9.14223 13.3193 9.13096 13.3313 9.11969C13.3639 9.08405 13.3523 9.04187 13.3496 9.00332C13.3313 8.73242 13.326 8.46042 13.3114 8.18842C13.2919 7.79569 13.2799 7.40369 13.2559 7.01096C13.2495 6.8906 13.2896 6.80405 13.3965 6.74369C13.4636 6.70514 13.5086 6.72078 13.5109 6.79642C13.5169 6.94369 13.5221 7.0906 13.5304 7.23787C13.554 7.66151 13.5675 8.08587 13.5885 8.50914C13.5983 8.70587 13.6178 8.90187 13.6114 9.09787C13.6091 9.15678 13.6129 9.21423 13.6223 9.24914C13.5911 9.12623 13.6163 8.97896 13.6043 8.83205C13.5821 8.58223 13.5773 8.33133 13.5664 8.08042C13.5503 7.65242 13.5248 7.22623 13.512 6.79823C13.509 6.66151 13.5386 6.64332 13.6766 6.69132C13.6976 6.69496 13.7198 6.68187 13.7408 6.69387ZM10.8045 9.23133C10.6489 9.37169 10.4925 9.51169 10.326 9.66005C10.326 9.52551 10.3215 9.40951 10.3268 9.29132C10.3598 8.50696 10.3954 7.72187 10.4295 6.93605C10.4333 6.85496 10.4426 6.7746 10.4501 6.69351C10.4723 6.68478 10.4876 6.71678 10.5109 6.70042C10.5324 6.68458 10.5575 6.67376 10.584 6.66878C10.6455 6.6586 10.6804 6.68696 10.6804 6.74769C10.6804 6.93423 10.6676 7.1186 10.6583 7.3026C10.6519 7.4466 10.641 7.5906 10.6373 7.7346C10.6279 8.05896 10.6088 8.3826 10.5964 8.70514C10.5885 8.88551 10.5848 9.0666 10.5739 9.24551C10.5881 9.07714 10.5881 8.90551 10.5953 8.73605C10.6193 8.1906 10.644 7.64514 10.6691 7.09969C10.6729 7.00223 10.6838 6.90369 10.68 6.80514C10.6785 6.77205 10.6838 6.73896 10.7198 6.72551C10.7513 6.71205 10.7756 6.73351 10.8019 6.74769C10.9016 6.80514 10.9395 6.88769 10.9346 7.00114C10.9126 7.46315 10.8919 7.92521 10.8724 8.38732C10.8634 8.59496 10.8649 8.80405 10.8398 9.01205C10.8326 9.08442 10.8128 9.15714 10.8045 9.23133Z" fill="#BF9200"/>
<path id="Vector_5" fill-rule="evenodd" clip-rule="evenodd" d="M10.8057 9.23113C10.7801 9.16367 10.7791 9.08979 10.8027 9.02167C10.8154 9.01949 10.8357 9.05258 10.8409 9.01622C10.8439 8.98349 10.8537 8.95294 10.8537 8.92167C10.8537 8.71003 10.869 8.49876 10.8795 8.28894C10.8945 7.98894 10.9017 7.68822 10.9234 7.38931C10.9313 7.28858 10.9302 7.18676 10.9324 7.0864C10.9339 7.03222 10.9313 6.96531 10.9988 6.94931C11.0659 6.93367 11.1057 6.98712 11.1424 7.03512C11.1645 7.06422 11.166 7.09949 11.1638 7.13512C11.1439 7.42058 11.1398 7.70567 11.1252 7.99149C11.1124 8.26858 11.1023 8.54531 11.0888 8.82349C11.1083 8.41403 11.1274 8.00422 11.1435 7.59403C11.1477 7.46494 11.1578 7.33585 11.1615 7.20494C11.1645 7.10131 11.193 7.08131 11.3014 7.09112C11.352 7.09658 11.4008 7.10603 11.4525 7.10931C11.4762 7.11803 11.502 7.1264 11.5092 7.15403C11.4987 7.19112 11.4645 7.18712 11.4372 7.18785C11.3775 7.19185 11.3573 7.22567 11.3738 7.27512C11.3929 7.32785 11.3858 7.38203 11.3884 7.43476C11.3858 7.48276 11.3847 7.53076 11.3805 7.57876C11.3678 7.68401 11.3614 7.78988 11.3614 7.89585C11.3592 8.08785 11.3404 8.28094 11.3352 8.47258C11.3164 8.54332 11.3119 8.61692 11.322 8.68931C11.3269 8.71258 11.334 8.73585 11.34 8.75913C11.3457 8.79367 11.331 8.82494 11.3115 8.85185C11.302 8.86197 11.2904 8.86998 11.2774 8.87531C11.2643 8.88065 11.2503 8.88319 11.2362 8.88276C11.1998 8.87731 11.184 8.90603 11.1634 8.92349L10.8057 9.23113ZM13.3347 9.14531C13.3283 9.1504 13.3223 9.15476 13.3167 9.16022C13.2394 9.0904 13.1607 9.02131 13.0845 8.95003C13.0789 8.9344 13.086 8.92203 13.095 8.90967C13.1025 8.89622 13.1007 8.88203 13.1007 8.86712C13.095 8.43876 13.071 8.01294 13.0489 7.58603C13.041 7.43076 13.047 7.27403 13.0294 7.11912C13.025 7.09242 13.0313 7.0651 13.047 7.04276C13.083 6.99331 13.1232 6.93476 13.1948 6.95149C13.2615 6.96749 13.2597 7.03476 13.2604 7.08858C13.2728 7.56203 13.3028 8.03549 13.3242 8.50894C13.3317 8.6784 13.3242 8.85003 13.35 9.01913C13.3557 9.05949 13.362 9.10531 13.3347 9.14531ZM13.0977 9.40567C13.1052 9.47403 13.134 9.4904 13.2079 9.47003C13.3223 9.43803 13.4828 9.51403 13.4595 9.65512C13.4543 9.69367 13.4644 9.71912 13.5045 9.73731C13.5634 9.76385 13.5844 9.83803 13.6564 9.85076C13.6669 9.85331 13.6725 9.87403 13.6632 9.88094C13.5957 9.91912 13.6155 10.0111 13.5518 10.0522C13.5432 10.0588 13.5308 10.0697 13.5297 10.0791C13.5252 10.2049 13.4292 10.2275 13.3294 10.2482C12.8562 10.3482 12.3765 10.3577 11.8954 10.3482C11.5407 10.3424 11.1867 10.3235 10.8394 10.2409C10.7479 10.2206 10.6898 10.1871 10.6583 10.0882C10.6333 10.0195 10.5961 9.95549 10.5484 9.89912C10.5207 9.86603 10.5282 9.86276 10.5593 9.83803C10.6377 9.77622 10.7453 9.73876 10.7389 9.60313C10.734 9.50603 10.8754 9.43367 10.986 9.46931C11.058 9.49222 11.0884 9.47513 11.0963 9.40567C11.1203 9.40094 11.1297 9.41731 11.1383 9.43367C11.151 9.45985 11.148 9.4864 11.1447 9.51403C11.1402 9.52623 11.1314 9.53652 11.1199 9.54312C11.085 9.55912 11.0505 9.54967 11.0172 9.54022C10.9932 9.53258 10.9635 9.52167 10.9422 9.5464C10.9155 9.57876 10.956 9.58822 10.9673 9.60858C10.9733 9.61832 10.9759 9.62966 10.9748 9.64094C10.9692 9.65985 10.953 9.66967 10.9373 9.67876C10.8829 9.69076 10.8379 9.7144 10.8139 9.76822C10.803 9.7944 10.7745 9.80858 10.7483 9.82567C10.6748 9.87549 10.6677 9.91476 10.7224 9.98167C10.7325 9.99513 10.749 10.0082 10.7524 10.0242C10.7745 10.1311 10.86 10.1493 10.9512 10.1668C11.2583 10.2242 11.5703 10.2497 11.8838 10.2515C12.1647 10.254 12.4444 10.2591 12.7245 10.234C12.9229 10.2162 13.1217 10.1969 13.3152 10.1493C13.3722 10.1355 13.4145 10.114 13.4284 10.0533C13.4348 10.0253 13.4558 10.002 13.4742 9.97913C13.5233 9.92022 13.5203 9.87549 13.4592 9.83294C13.4174 9.80967 13.3827 9.77604 13.3587 9.73549C13.3343 9.68858 13.2878 9.69513 13.2413 9.70131C13.1149 9.72203 12.993 9.75731 12.8674 9.78094C12.8509 9.77876 12.84 9.77003 12.8307 9.75585C12.822 9.74291 12.8169 9.72802 12.8158 9.71261C12.8148 9.6972 12.8178 9.68179 12.8247 9.66785C12.8314 9.65511 12.8423 9.64497 12.8558 9.63912C12.9915 9.69294 13.1074 9.60713 13.2345 9.59222C13.2522 9.58967 13.2619 9.57658 13.26 9.56094C13.2537 9.53731 13.2342 9.53076 13.2102 9.53403C13.167 9.53876 13.1247 9.56385 13.0789 9.54603C13.0669 9.53945 13.0574 9.52923 13.0519 9.51694C13.0449 9.48971 13.0466 9.46104 13.0568 9.43476C13.0647 9.41803 13.0737 9.40131 13.0992 9.40567" fill="#BF9200"/>
<path id="Vector_6" fill-rule="evenodd" clip-rule="evenodd" d="M13.1021 8.93457L13.0841 8.94802C13.0293 8.92547 13.0027 8.86293 12.9412 8.84875C12.9351 8.85345 12.9279 8.85656 12.9202 8.85777C12.9125 8.85898 12.9047 8.85825 12.8973 8.85566C12.8625 8.83348 12.8501 8.80293 12.852 8.76438C12.8553 8.74038 12.8658 8.7182 12.8696 8.69311C12.8812 8.62308 12.8775 8.55148 12.8587 8.48293C12.8512 8.27347 12.831 8.06584 12.8302 7.85566C12.8302 7.7862 12.8407 7.71238 12.798 7.64875C12.783 7.63866 12.7713 7.62466 12.7642 7.60838C12.78 7.50402 12.8017 7.40075 12.8148 7.29529C12.8253 7.20838 12.8283 7.20402 12.7402 7.18838C12.7173 7.18438 12.6926 7.18438 12.6836 7.15602C12.6903 7.12693 12.7177 7.11966 12.7421 7.10984C12.798 7.10511 12.8538 7.0942 12.9097 7.08911C12.9945 7.08111 13.026 7.10475 13.0308 7.18766C13.0391 7.35311 13.0447 7.51748 13.0518 7.6822C13.074 8.09057 13.0837 8.50148 13.1092 8.91057C13.1092 8.91929 13.1047 8.92729 13.1021 8.93457Z" fill="#BF9200"/>
<path id="Vector_7" fill-rule="evenodd" clip-rule="evenodd" d="M12.9055 8.84726C12.9175 8.84726 12.9288 8.84835 12.9404 8.84835L13.0109 9.12399C13.021 9.14035 13.0199 9.15453 13.0011 9.16508C12.9873 9.17199 12.9685 9.14653 12.9558 9.17199C12.895 9.28653 12.9183 9.39308 13.027 9.47417C13.0416 9.48399 13.057 9.49199 13.0638 9.51053C13.0704 9.51638 13.0774 9.52185 13.0848 9.5269C13.084 9.56726 13.0491 9.57017 13.024 9.57671C12.9584 9.58981 12.895 9.61017 12.8275 9.60581C12.8039 9.60577 12.7805 9.61061 12.7589 9.61999C12.6246 9.64544 12.4889 9.64399 12.3539 9.63926C12.3303 9.63781 12.3025 9.63562 12.295 9.66617C12.2886 9.69526 12.313 9.70472 12.3366 9.71126C12.3966 9.7309 12.4593 9.72362 12.52 9.7269C12.5538 9.72872 12.5913 9.71744 12.6175 9.75053C12.6216 9.79599 12.5845 9.79817 12.5534 9.80326C12.5151 9.80872 12.4763 9.80946 12.4379 9.80544C12.3606 9.80108 12.2901 9.8149 12.2328 9.8709C12.2254 9.87953 12.2158 9.88617 12.205 9.89017C12.1443 9.91017 12.0933 9.84399 12.0156 9.88835C11.9695 9.91562 11.8971 9.83344 11.8619 9.77199C11.8584 9.75954 11.8579 9.74648 11.8604 9.73381C11.866 9.70544 11.9144 9.69453 11.896 9.66035C11.8761 9.62508 11.8364 9.64253 11.8064 9.63926C11.74 9.63271 11.6691 9.66835 11.6095 9.61817C11.6061 9.56035 11.6669 9.56799 11.6943 9.53962C11.7108 9.52602 11.7315 9.51799 11.7531 9.51672C11.7666 9.51672 11.7783 9.52144 11.7891 9.52944C11.7993 9.5389 11.8101 9.55162 11.8255 9.55017C11.9185 9.54108 11.9946 9.57235 12.0644 9.6269C12.0816 9.64035 12.1023 9.64617 12.121 9.63053C12.1956 9.5749 12.2785 9.54181 12.3771 9.54871C12.3873 9.54871 12.3955 9.53599 12.4045 9.52871C12.4146 9.52106 12.4267 9.51616 12.4394 9.51453C12.505 9.53962 12.5515 9.53744 12.5853 9.46071C12.6149 9.39199 12.6543 9.39817 12.7398 9.47235C12.7998 9.39162 12.7994 9.37453 12.727 9.27162C12.6858 9.30472 12.6861 9.38253 12.6171 9.38181C12.553 9.38181 12.5391 9.31744 12.5016 9.2829C12.4668 9.32144 12.4941 9.39962 12.4158 9.40981C12.379 9.38653 12.376 9.35199 12.3824 9.31526C12.4105 9.23708 12.406 9.15744 12.3978 9.07817C12.4005 9.06515 12.4061 9.05287 12.4143 9.04217C12.4536 8.99708 12.4443 8.9389 12.4585 8.8869C12.4713 8.84217 12.4698 8.77926 12.5346 8.77381C12.5924 8.77017 12.6179 8.82399 12.646 8.86399C12.6537 8.87438 12.6585 8.88654 12.6599 8.89926C12.6558 8.86399 12.6719 8.81926 12.6974 8.77926C12.7308 8.72762 12.793 8.73235 12.8388 8.78726C12.8575 8.81017 12.8658 8.84581 12.9055 8.84726Z" fill="#BF9200"/>
<path id="Vector_8" fill-rule="evenodd" clip-rule="evenodd" d="M11.7366 9.57817C11.6998 9.61017 11.6485 9.58217 11.6102 9.6098C11.5581 9.67017 11.497 9.61599 11.4407 9.62144C11.4152 9.61671 11.3927 9.60399 11.3668 9.60581C11.2986 9.61017 11.2337 9.5898 11.1681 9.57671C11.1422 9.57017 11.107 9.56762 11.1055 9.5269C11.1129 9.52194 11.1199 9.51647 11.1265 9.51053C11.1328 9.49199 11.1486 9.48435 11.1632 9.47417C11.2708 9.39308 11.296 9.28653 11.2356 9.17308C11.2217 9.14835 11.2037 9.17199 11.1891 9.16544C11.1696 9.1549 11.1696 9.14071 11.1793 9.12435C11.1876 9.04144 11.2345 8.96726 11.2345 8.88326C11.239 8.87363 11.246 8.86529 11.2548 8.85905C11.2636 8.8528 11.2739 8.84887 11.2847 8.84762C11.3117 8.84762 11.3275 8.83126 11.3395 8.80908C11.362 8.76944 11.3938 8.73781 11.4452 8.74399C11.4955 8.75017 11.5033 8.79562 11.5187 8.83344C11.5228 8.8429 11.5228 8.85562 11.5326 8.86362C11.539 8.86508 11.5423 8.86181 11.5468 8.85635C11.5795 8.82144 11.6027 8.76181 11.6623 8.77526C11.7298 8.79017 11.7231 8.85853 11.7351 8.91017C11.7448 8.95126 11.7426 8.99671 11.7831 9.0258C11.7928 9.03446 11.7996 9.04574 11.8026 9.05817C11.7861 9.14799 11.7741 9.23599 11.8176 9.32326C11.8202 9.35671 11.812 9.38508 11.7831 9.40544C11.6935 9.40871 11.7272 9.31999 11.6886 9.28399C11.5813 9.41926 11.5645 9.41926 11.4681 9.27635C11.3953 9.35417 11.3931 9.37235 11.4433 9.47053C11.4707 9.47162 11.4793 9.44362 11.4977 9.43162C11.536 9.40581 11.578 9.40399 11.5971 9.44362C11.6245 9.50981 11.6811 9.54181 11.7366 9.57817ZM11.8412 6.35526C11.8577 6.25199 11.8866 6.1509 11.8802 6.04581C11.8792 6.01101 11.8693 5.97699 11.8515 5.94675C11.8337 5.91651 11.8086 5.89096 11.7782 5.87235C11.76 5.86303 11.7396 5.85828 11.719 5.85853C11.6875 5.85526 11.647 5.92435 11.6267 5.85526C11.6183 5.82869 11.6177 5.80033 11.6252 5.77349C11.6327 5.74664 11.648 5.72242 11.6691 5.70362C11.68 5.69381 11.6961 5.68471 11.7085 5.68544C11.887 5.69744 12.067 5.62981 12.2451 5.70508C12.3385 5.74581 12.3958 5.80435 12.4022 5.90508C12.4101 5.92253 12.4127 5.9389 12.3928 5.94981C12.3643 5.94981 12.349 5.93017 12.34 5.90944C12.3085 5.83344 12.2425 5.82762 12.1858 5.85999C12.0703 5.92835 11.9818 5.88362 11.8971 5.81199C11.8621 5.7844 11.822 5.76354 11.779 5.75053C11.857 5.76871 11.9211 5.82144 11.9785 5.87817C12.0197 5.91744 12.0336 5.96071 11.9837 6.01344C11.9245 6.0749 11.9593 6.16217 11.935 6.23526C11.9162 6.28944 11.9305 6.35962 11.8543 6.38544C11.8397 6.37962 11.8341 6.37017 11.8412 6.35526ZM12.523 6.69381C12.5406 6.73599 12.5788 6.72835 12.6137 6.72653C12.7761 6.72071 12.9186 6.65817 13.0588 6.58726C13.0746 6.57781 13.0828 6.58544 13.0888 6.5989C13.0873 6.6469 13.0476 6.66726 13.0123 6.68762C12.9529 6.72044 12.8892 6.74539 12.823 6.76181C12.7438 6.78399 12.6673 6.81599 12.592 6.83744C12.4888 6.86799 12.37 6.92799 12.253 6.8549C12.2218 6.83599 12.1911 6.83126 12.1536 6.85344C12.0677 6.90653 12.0167 6.88035 11.9931 6.77781C11.9948 6.77187 11.9979 6.76634 12.0019 6.76159C12.006 6.75683 12.011 6.75294 12.0167 6.75017C12.1273 6.74799 12.1303 6.74617 12.1288 6.63199C12.1288 6.60217 12.1236 6.57381 12.127 6.54508C12.1382 6.48981 12.1412 6.43381 12.1405 6.37817C12.1401 6.34653 12.1341 6.31453 12.1648 6.29235C12.2245 6.29017 12.2181 6.3349 12.2207 6.37017C12.2271 6.46799 12.2181 6.56544 12.2398 6.6629C12.2481 6.70253 12.2616 6.73381 12.316 6.7549C12.2713 6.63873 12.2415 6.51771 12.2271 6.39453C12.2245 6.36835 12.22 6.34326 12.2215 6.31708C12.2226 6.28181 12.2245 6.23926 12.2721 6.23926C12.3088 6.23853 12.3257 6.27417 12.328 6.30799C12.3313 6.35344 12.3441 6.39781 12.349 6.44399C12.3568 6.52181 12.3748 6.59744 12.4082 6.66908C12.4228 6.69853 12.439 6.73999 12.487 6.70253C12.4978 6.69381 12.5091 6.68871 12.523 6.69381Z" fill="#BF9200"/>
<path id="Vector_9" fill-rule="evenodd" clip-rule="evenodd" d="M11.8411 6.35518C11.8467 6.36355 11.8519 6.37155 11.8587 6.37955C11.8966 6.41664 11.8718 6.45591 11.8602 6.49191C11.8332 6.57591 11.7784 6.64646 11.7342 6.72355C11.7942 6.70936 11.8178 6.66355 11.8358 6.61555C11.8699 6.52646 11.9029 6.43664 11.9157 6.33991C11.9176 6.333 11.9157 6.32282 11.9191 6.31591C11.9378 6.27846 11.9284 6.21264 11.9881 6.21809C12.0556 6.22427 12.0256 6.285 12.0233 6.32355C12.013 6.47663 11.9667 6.6254 11.8879 6.75846C11.8771 6.77591 11.8658 6.79155 11.8643 6.813C11.8444 6.83082 11.8444 6.853 11.8497 6.87664C11.8171 6.91591 11.7822 6.92937 11.7548 6.87591C11.7368 6.84027 11.7151 6.85009 11.6881 6.857C11.6352 6.87046 11.5883 6.86355 11.5527 6.81918C11.5276 6.78937 11.4916 6.78536 11.4552 6.78064C11.3607 6.76718 11.2697 6.73646 11.1871 6.69009C11.1481 6.67118 11.1049 6.65082 11.1016 6.59882C11.1076 6.58536 11.1158 6.57736 11.1319 6.58718C11.2684 6.65664 11.4076 6.71591 11.5662 6.72827C11.6191 6.73118 11.6524 6.71773 11.6821 6.67227C11.7466 6.57155 11.7961 6.46464 11.8411 6.35518Z" fill="#BF9200"/>
<path id="Vector_10" fill-rule="evenodd" clip-rule="evenodd" d="M11.1313 6.58554C11.1235 6.59027 11.1163 6.59572 11.1081 6.60191C11.0698 6.631 11.0353 6.60954 11.0001 6.59427C10.9217 6.55972 10.8384 6.53668 10.753 6.5259C10.6513 6.51245 10.576 6.559 10.5351 6.65172C10.5201 6.68881 10.5013 6.72663 10.4807 6.76081C10.4395 6.751 10.4751 6.70809 10.4492 6.69209C10.4875 6.51027 10.5977 6.4339 10.7852 6.459C10.9105 6.47572 11.0252 6.51718 11.1313 6.58554ZM13.081 6.60372C13.074 6.59741 13.0664 6.59192 13.0581 6.58736C13.1743 6.51245 13.3015 6.46918 13.4387 6.45609C13.5996 6.44045 13.705 6.52591 13.7398 6.69391L13.7222 6.7499C13.6768 6.7339 13.6697 6.68918 13.6543 6.65354C13.6112 6.559 13.5336 6.51245 13.4275 6.52845C13.345 6.54017 13.2645 6.56306 13.1886 6.59645C13.1537 6.61136 13.1188 6.63245 13.081 6.60372ZM12.5222 6.69391C12.5158 6.70053 12.51 6.70758 12.5046 6.715C12.4607 6.71427 12.4431 6.68481 12.4311 6.65136C12.3913 6.55871 12.3697 6.45969 12.3673 6.35936C12.3752 6.32518 12.3857 6.29063 12.421 6.271C12.4431 6.41427 12.4618 6.55827 12.5222 6.69391Z" fill="#BF9200"/>
<path id="Vector_11" fill-rule="evenodd" clip-rule="evenodd" d="M12.4227 6.2728C12.4148 6.30189 12.4257 6.33644 12.4035 6.36407C12.3499 6.30335 12.3372 6.01062 12.3867 5.94698C12.3915 5.93316 12.3972 5.9208 12.4028 5.90698C12.4395 6.02807 12.4242 6.14989 12.4227 6.27426M11.1792 9.12371C11.1852 9.13498 11.1904 9.14771 11.1945 9.15971C11.2452 9.22625 11.2125 9.27535 11.16 9.32044C11.13 9.32335 11.1402 9.29426 11.1289 9.28262C11.1428 9.2288 11.1522 9.1728 11.1792 9.12371ZM12.9953 9.16007C13.0002 9.14844 13.005 9.13571 13.0107 9.12407C13.0377 9.17316 13.0474 9.22916 13.0609 9.28335C13.0504 9.29462 13.0609 9.32371 13.0298 9.32116C12.9773 9.27607 12.9447 9.22662 12.9953 9.16007Z" fill="#BF9200"/>
<path id="Vector_12" fill-rule="evenodd" clip-rule="evenodd" d="M11.1294 9.28315C11.1362 9.29515 11.1414 9.30788 11.1482 9.32133C11.183 9.37442 11.1797 9.41733 11.1107 9.44061C11.1047 9.42897 11.1005 9.41733 11.0945 9.40533C11.1065 9.36497 11.1178 9.32388 11.1294 9.28315ZM13.0434 9.3217C13.049 9.30824 13.0543 9.29552 13.061 9.28352C13.0723 9.32388 13.0839 9.36533 13.0963 9.40606C13.0899 9.4177 13.0858 9.42933 13.0798 9.44133C13.0108 9.41733 13.0074 9.37479 13.0434 9.3217ZM11.3938 7.68715C11.3717 7.64933 11.3675 7.60752 11.3589 7.56643C11.3315 7.52279 11.3563 7.48061 11.3615 7.43733C11.3784 7.51333 11.3957 7.59006 11.4118 7.66679C11.4062 7.6737 11.4062 7.68642 11.3938 7.68715ZM11.3203 8.61988C11.3282 8.60206 11.3345 8.58461 11.3417 8.56788C11.3567 8.57515 11.348 8.59333 11.3567 8.60279C11.3462 8.65661 11.3357 8.71297 11.3079 8.76243C11.3023 8.74352 11.2982 8.72388 11.2918 8.70352C11.306 8.67733 11.2869 8.63988 11.3203 8.61988ZM11.6109 7.14133C11.5742 7.14606 11.5385 7.15261 11.5029 7.15879C11.4838 7.15261 11.4643 7.14788 11.4459 7.14243C11.4849 7.12715 11.5265 7.12679 11.5685 7.12497C11.5862 7.12133 11.6072 7.10715 11.6109 7.14133ZM10.964 9.63297C11.0334 9.64715 11.1047 9.65443 11.1703 9.67879C11.2783 9.71697 11.3319 9.66679 11.3702 9.58061C11.3927 9.5777 11.4125 9.57952 11.4305 9.59406C11.4549 9.61261 11.4909 9.61733 11.4992 9.65479C11.5085 9.70279 11.5457 9.71334 11.5899 9.70824C11.6784 9.71988 11.7662 9.73188 11.8565 9.72243C11.8611 9.72319 11.8654 9.72484 11.8693 9.72728C11.8731 9.72972 11.8765 9.73289 11.879 9.73661V9.76643C11.7785 9.77903 11.6767 9.77928 11.576 9.76715C11.4823 9.75552 11.4197 9.78206 11.3814 9.88206C11.3525 9.72606 11.2333 9.71515 11.1144 9.69588C11.0499 9.68679 10.985 9.67806 10.9258 9.64788C10.9389 9.64352 10.9513 9.6377 10.964 9.63297ZM12.8203 9.5817C12.8139 9.6177 12.8634 9.61843 12.866 9.64824L12.8488 9.66715C12.83 9.68279 12.7907 9.68133 12.7922 9.71552C12.7955 9.74242 12.8304 9.73697 12.8477 9.75115L12.8653 9.7697C12.8473 9.80388 12.8282 9.8377 12.8042 9.88388C12.7719 9.78679 12.7078 9.75261 12.6163 9.76824C12.5503 9.73988 12.482 9.76097 12.4149 9.75479C12.3797 9.75188 12.3433 9.75988 12.3118 9.73842C12.3699 9.6817 12.4453 9.71079 12.512 9.70933C12.5927 9.70606 12.6707 9.72352 12.7078 9.62752C12.7145 9.61079 12.7434 9.60824 12.7599 9.59624C12.7764 9.58061 12.7978 9.57806 12.8203 9.5817ZM12.8353 8.60279C12.8272 8.57716 12.8193 8.55146 12.8117 8.5257C12.7963 8.51406 12.779 8.50643 12.7697 8.48897C12.7091 8.35347 12.6692 8.21015 12.6512 8.06352C12.6493 8.04642 12.653 8.03006 12.6482 8.01224C12.6973 7.88097 12.7663 7.75552 12.7835 7.61406C12.7922 7.62024 12.8019 7.62497 12.8109 7.63115C12.8409 7.70679 12.827 7.78715 12.8304 7.8657C12.8394 8.09733 12.8409 8.33006 12.8735 8.55915C12.8694 8.5817 12.8657 8.60352 12.8353 8.60279ZM12.6887 7.15915C12.6193 7.15988 12.5555 7.13952 12.4899 7.12461C12.4925 7.09006 12.515 7.10424 12.5327 7.10715C12.6032 7.11879 12.6752 7.13079 12.7445 7.14097C12.7261 7.14763 12.7075 7.15369 12.6887 7.15915Z" fill="#BF9200"/>
<path id="Vector_13" fill-rule="evenodd" clip-rule="evenodd" d="M12.8526 8.56831C12.8593 8.58504 12.8664 8.60322 12.8739 8.62031C12.9073 8.64031 12.8882 8.67776 12.9021 8.70467C12.8961 8.72431 12.8919 8.74395 12.8867 8.76358C12.8586 8.71304 12.8496 8.65813 12.8372 8.60322C12.8417 8.59158 12.8477 8.58031 12.8526 8.56831ZM12.4213 8.62176C12.3699 8.71958 12.3111 8.81522 12.3493 8.93231C12.3587 8.94758 12.3486 8.96431 12.3519 8.97995C12.3816 9.0894 12.4134 9.19958 12.4194 9.31449C12.4116 9.34569 12.4126 9.37837 12.4224 9.40904C12.4678 9.44104 12.4824 9.47958 12.4382 9.52395C12.4327 9.53021 12.4275 9.53664 12.4224 9.54322C12.3924 9.54649 12.3666 9.56322 12.3358 9.55995C12.2758 9.55267 12.2222 9.53086 12.2169 9.46613C12.2091 9.37631 12.1956 9.28613 12.1869 9.19631C12.1877 9.1414 12.1761 9.08795 12.1746 9.0334C12.1678 9.01376 12.1712 8.99158 12.1633 8.97376C12.1658 8.97945 12.1674 8.98545 12.1682 8.99158C12.1682 9.01413 12.1761 9.03413 12.1779 9.0574C12.1884 9.13376 12.1761 9.21413 12.2031 9.2894C12.2023 9.34686 12.2158 9.40358 12.2132 9.46213C12.2121 9.53922 12.1577 9.59813 12.0932 9.59486C12.0324 9.59267 11.9822 9.53522 11.9814 9.46213C11.9803 9.39958 11.9901 9.33595 11.9953 9.27376C12.0159 9.20285 12.0096 9.12976 12.0174 9.0574C12.0204 9.01886 12.0381 8.98176 12.0339 8.94285C12.0366 8.97885 12.0257 9.01231 12.0178 9.04649C12.0219 9.09631 12.0058 9.1454 12.0081 9.19485C11.9964 9.28249 11.9863 9.3694 11.9799 9.45813C11.9751 9.5214 11.9184 9.5614 11.8502 9.56031C11.8228 9.55958 11.7996 9.5454 11.7729 9.54358L11.7568 9.52431C11.7137 9.47995 11.7268 9.44176 11.7722 9.4094C11.7793 9.37958 11.7857 9.34758 11.7932 9.31776C11.7864 9.23995 11.7831 9.16286 11.8149 9.08831C11.8228 9.06686 11.8149 9.05558 11.7906 9.05631C11.785 9.05037 11.7798 9.04405 11.7752 9.0374C11.8056 8.99158 11.8359 8.9454 11.8667 8.90067C11.8814 8.86712 11.8896 8.83127 11.8911 8.79486C11.8922 8.73304 11.8993 8.67158 11.9241 8.61267C11.9343 8.59133 11.9519 8.57419 11.9739 8.56431C12.0977 8.65158 12.0977 8.65158 12.2218 8.56249C12.2422 8.57314 12.2588 8.58931 12.2698 8.60904C12.2877 8.6529 12.2987 8.69911 12.3024 8.74613C12.3031 8.68031 12.3241 8.6162 12.3628 8.56213C12.3718 8.55178 12.3846 8.54525 12.3984 8.54395C12.4307 8.54904 12.4479 8.56722 12.4494 8.59885C12.4453 8.61304 12.4386 8.62431 12.4213 8.62176Z" fill="#BF9200"/>
<path id="Vector_14" fill-rule="evenodd" clip-rule="evenodd" d="M12.4156 9.07588C12.3863 9.03951 12.3575 9.00279 12.3275 8.96642C12.3338 8.95442 12.3402 8.94351 12.347 8.93224C12.3826 8.97006 12.4092 9.01188 12.4328 9.05697L12.4156 9.07588ZM11.951 6.75842C12.0233 6.68061 12.0233 6.57915 12.0395 6.48388C12.0556 6.39333 12.0616 6.30206 12.0717 6.20679C12.1096 6.21951 12.0995 6.24133 12.0983 6.25806C12.0878 6.40533 12.0732 6.5526 12.0293 6.69479C12.023 6.71697 12.0136 6.73842 12.023 6.76206C12.0162 6.76824 12.0113 6.77479 12.0053 6.77988H11.9708C11.951 6.78533 11.9461 6.77661 11.951 6.75842ZM12.1658 6.5817C12.1403 6.46388 12.1538 6.34606 12.1482 6.21806C12.1973 6.24388 12.1805 6.27224 12.1812 6.29515C12.1505 6.38933 12.176 6.48679 12.1658 6.5817Z" fill="#BF9200"/>
<path id="Vector_15" fill-rule="evenodd" clip-rule="evenodd" d="M11.9524 6.75854C11.9589 6.76604 11.9658 6.7732 11.9731 6.78C11.9356 6.81636 11.8939 6.84473 11.8452 6.864C11.8219 6.84836 11.8234 6.832 11.8452 6.81636C11.8902 6.81345 11.9176 6.77927 11.9524 6.75854ZM11.6127 7.14145C11.5988 7.136 11.5842 7.13127 11.5703 7.12509C11.6783 7.09527 11.7852 7.06691 11.8936 7.03782C11.9119 7.03054 11.9176 7.03709 11.9176 7.05454C11.8198 7.09498 11.7175 7.12415 11.6127 7.14145ZM12.3413 7.07818C12.2706 7.06395 12.2045 7.03311 12.1489 6.98836C12.1508 6.97745 12.1602 6.97673 12.1684 6.97345L12.3653 7.05891C12.3672 7.07673 12.3623 7.08618 12.3413 7.07818Z" fill="#BF9200"/>
<path id="Vector_16" fill-rule="evenodd" clip-rule="evenodd" d="M11.9146 7.05423C11.9068 7.04841 11.8988 7.04283 11.8906 7.0375L12.059 6.95459C12.063 6.95596 12.0667 6.95813 12.0698 6.96094C12.0729 6.96376 12.0753 6.96717 12.077 6.97095C12.0305 7.01459 11.9724 7.03532 11.9146 7.05423ZM12.3384 7.07823L12.3624 7.05932C12.4182 7.07532 12.4756 7.09204 12.5311 7.10732C12.5173 7.11386 12.5026 7.11859 12.4884 7.12477C12.4374 7.11386 12.3845 7.10441 12.3384 7.07823Z" fill="#BF9200"/>
<path id="Vector_17" fill-rule="evenodd" clip-rule="evenodd" d="M12.0787 6.97087C12.072 6.96542 12.0675 6.95997 12.0607 6.95451C12.1099 6.88833 12.1335 6.95233 12.1672 6.97342L12.1478 6.98833C12.1256 6.98215 12.1087 6.95269 12.0787 6.97087ZM12.3292 8.38906C12.3465 8.33415 12.3502 8.27924 12.3502 8.22178C12.3487 7.89378 12.3503 7.56687 12.3488 7.23887C12.3488 7.20651 12.3649 7.16978 12.3292 7.14178C12.3244 7.1396 12.3225 7.13742 12.3244 7.13415C12.3259 7.13087 12.3274 7.12942 12.3292 7.12942C12.4717 7.15706 12.6105 7.2036 12.7586 7.2036C12.7976 7.20433 12.7995 7.22869 12.7984 7.25669C12.7796 7.68833 12.6341 8.06978 12.3292 8.38906ZM11.8612 7.14142C11.8189 7.14906 11.8256 7.18251 11.8256 7.20906C11.8256 7.56324 11.8275 7.91815 11.8241 8.27233C11.8241 8.30833 11.85 8.33633 11.8463 8.37124C11.6066 8.1196 11.4746 7.81851 11.4161 7.48578C11.4026 7.40942 11.4008 7.33087 11.3944 7.25269C11.3903 7.21706 11.4037 7.20142 11.4427 7.20142C11.5807 7.19851 11.7124 7.15815 11.8444 7.12578C11.8631 7.11706 11.865 7.12724 11.8612 7.14142ZM11.3588 8.60287C11.3543 8.59104 11.3493 8.57939 11.3438 8.56797C11.4038 8.27706 11.3974 7.98178 11.3962 7.68687L11.4142 7.66687C11.4574 7.78178 11.5012 7.89597 11.5444 8.01015C11.5541 8.02833 11.5436 8.04469 11.5463 8.06215C11.5245 8.20906 11.4862 8.35197 11.4247 8.48906C11.4165 8.50651 11.3985 8.51415 11.3839 8.52506C11.3753 8.55124 11.3674 8.57815 11.3588 8.60287ZM12.42 8.62178C12.426 8.6156 12.4305 8.60906 12.4365 8.60287C12.5093 8.57997 12.4856 8.52251 12.4856 8.47451C12.4841 8.42469 12.4455 8.42651 12.4095 8.42397C12.4031 8.42234 12.3975 8.41877 12.3934 8.4138C12.3893 8.40883 12.3869 8.4027 12.3866 8.39633C12.4807 8.27451 12.5696 8.14687 12.6465 8.01233C12.654 8.02324 12.6615 8.03524 12.6694 8.04615C12.644 8.1377 12.6272 8.23129 12.6191 8.32578C12.6098 8.45087 12.6686 8.50033 12.7909 8.47778C12.7976 8.49269 12.804 8.50906 12.8104 8.52578C12.744 8.63197 12.744 8.63196 12.6454 8.53887C12.6244 8.51924 12.6019 8.49997 12.5689 8.47015L12.5284 8.76651L12.42 8.62178Z" fill="#BF9200"/>
<path id="Vector_18" fill-rule="evenodd" clip-rule="evenodd" d="M11.3828 8.52485L11.4016 8.47794C11.4848 8.51139 11.5347 8.46812 11.5774 8.40776C11.5973 8.38339 11.6063 8.3503 11.6371 8.33539C11.6599 8.33139 11.6847 8.33248 11.7027 8.31248C11.7076 8.30894 11.7135 8.30685 11.7196 8.30646C11.7257 8.30608 11.7318 8.30741 11.7372 8.3103C11.7556 8.33248 11.7814 8.34885 11.7874 8.38012C11.7871 8.38795 11.7842 8.39547 11.7792 8.40157C11.7529 8.42012 11.7121 8.42085 11.6997 8.45757C11.6787 8.47903 11.6779 8.51976 11.6348 8.51721C11.6251 8.50557 11.6397 8.45685 11.5984 8.49321C11.5666 8.51905 11.5368 8.54713 11.5092 8.57721C11.4631 8.62957 11.4278 8.63939 11.4053 8.55976C11.4012 8.54703 11.3911 8.53648 11.3828 8.52485Z" fill="#BF9200"/>
<path id="Vector_19" fill-rule="evenodd" clip-rule="evenodd" d="M11.641 8.34397C11.6313 8.37306 11.6212 8.40106 11.6125 8.43088C11.5844 8.42033 11.575 8.39597 11.5732 8.36906C11.5628 8.26097 11.5449 8.1537 11.5195 8.04797C11.5259 8.03488 11.5334 8.02324 11.5398 8.00979C11.581 8.07997 11.6234 8.14833 11.6647 8.21852C11.6688 8.22482 11.6712 8.23211 11.6714 8.23961C11.6617 8.2647 11.6628 8.29088 11.6635 8.31742C11.6605 8.32979 11.6549 8.33924 11.641 8.34397ZM11.7712 8.38543C11.7749 8.38215 11.779 8.38106 11.7832 8.37888C11.8458 8.4407 11.908 8.50106 11.9692 8.56324C11.9707 8.58386 11.9653 8.60442 11.9538 8.62179C11.908 8.60397 11.8792 8.55088 11.8199 8.56324C11.8083 8.55909 11.7987 8.55093 11.7929 8.54033C11.8042 8.48615 11.737 8.44215 11.7712 8.38543ZM12.3835 8.39633C12.3883 8.39909 12.3924 8.40281 12.3955 8.40724C12.4188 8.45633 12.406 8.50433 12.394 8.5527L12.3768 8.57197C12.3187 8.55743 12.277 8.59597 12.2324 8.62252C12.2178 8.60397 12.217 8.58288 12.2159 8.56215C12.2714 8.50724 12.3288 8.45197 12.3835 8.39633ZM11.8604 8.39633C11.9384 8.41524 11.9797 8.47124 12.0138 8.53597C11.9515 8.50179 11.9062 8.44906 11.8604 8.39633ZM12.1439 7.05633C12.0899 7.01779 12.0517 7.08324 12.0022 7.07524C12.0472 7.05124 12.0805 6.95088 12.1439 7.05633ZM12.031 8.53452C12.0779 8.58324 12.1233 8.55488 12.1683 8.53052C12.1555 8.5687 12.1285 8.59924 12.0899 8.59924C12.0614 8.59815 12.0325 8.57161 12.031 8.53452Z" fill="#BF9200"/>
<path id="Vector_20" fill-rule="evenodd" clip-rule="evenodd" d="M11.6621 8.2472C11.6628 8.23702 11.6647 8.2283 11.6662 8.21884C11.6891 8.24939 11.7108 8.27957 11.7348 8.31011C11.7285 8.31631 11.7224 8.32287 11.7168 8.32975C11.6715 8.33266 11.6647 8.29739 11.6523 8.26902C11.6534 8.261 11.6568 8.25343 11.6621 8.2472ZM12.2208 8.48357C12.2418 8.45011 12.2542 8.40539 12.3101 8.41484C12.285 8.4443 12.2632 8.47702 12.2208 8.48357ZM12.3288 7.12793V7.14066C12.297 7.13157 12.2583 7.13302 12.2418 7.09375C12.2739 7.0957 12.3044 7.10769 12.3288 7.12793ZM11.8608 7.14139C11.8556 7.13666 11.85 7.1312 11.844 7.12648C11.8702 7.1043 11.9002 7.09375 11.9336 7.1123C11.9145 7.13411 11.8863 7.13593 11.8608 7.14139ZM11.8083 8.53266L11.8252 8.55193C11.8747 8.60321 11.8785 8.66975 11.8901 8.73302C11.8965 8.75957 11.8938 8.78757 11.9145 8.81084C11.9137 8.84939 11.8863 8.87302 11.8642 8.90066C11.8436 8.8043 11.8282 8.70684 11.7716 8.62175C11.7547 8.62648 11.7472 8.61557 11.742 8.60102C11.742 8.55775 11.757 8.52902 11.8083 8.53266Z" fill="#BF9200"/>
<path id="Vector_21" fill-rule="evenodd" clip-rule="evenodd" d="M11.7549 8.60121L11.7729 8.62194C11.7441 8.6634 11.7129 8.7394 11.6747 8.73176C11.6207 8.71903 11.6559 8.64085 11.6413 8.59394C11.6338 8.56921 11.6364 8.54231 11.6338 8.51721C11.6436 8.48812 11.6541 8.45903 11.6638 8.4314C11.7077 8.44994 11.7036 8.48958 11.7036 8.5263C11.7036 8.56303 11.7141 8.59031 11.7549 8.60121ZM12.7543 10.1016C12.7284 10.1067 12.6973 10.1183 12.6928 10.0772C12.6902 10.0394 12.7153 10.0179 12.7438 10.0009C12.7959 9.9703 12.7892 10.0379 12.8248 10.0539C12.8304 9.99321 12.9002 9.96412 12.8796 9.89794C12.8781 9.89394 12.8931 9.88158 12.9032 9.87721C12.9058 9.87576 12.9204 9.88449 12.9212 9.88921C12.9253 9.95467 13.0059 9.94812 13.0258 9.99758C13.0303 10.0103 13.0509 10.015 13.0547 10.0063C13.0918 9.9383 13.1473 9.96667 13.2051 9.98303C13.1953 9.9354 13.1863 9.89721 13.1784 9.8594C13.1706 9.82158 13.1574 9.78921 13.1072 9.80885C13.0858 9.81721 13.0701 9.80812 13.0678 9.78958C13.0622 9.76558 13.0881 9.76667 13.1034 9.76231C13.1762 9.74412 13.2069 9.78121 13.2212 9.84485C13.2317 9.90267 13.2201 9.98521 13.3292 9.94485C13.3348 9.94231 13.3509 9.95503 13.3554 9.96376C13.3629 9.9794 13.3438 9.98667 13.3367 9.98594C13.2399 9.98012 13.1784 10.0925 13.0738 10.0583C13.0558 10.0536 13.0479 10.0649 13.0419 10.0805C13.0161 10.1416 12.9853 10.1496 12.9294 10.1034C12.8784 10.0619 12.8308 10.0859 12.7963 10.1339C12.7622 10.1449 12.7753 10.103 12.7543 10.1016ZM11.6631 10.1929C11.7351 10.1685 11.7816 10.139 11.7414 10.0692C11.7287 10.0467 11.7369 10.0259 11.7598 10.0194C11.7808 10.0118 11.7849 10.0343 11.7924 10.0499C11.7999 10.0659 11.8052 10.0856 11.8281 10.079C11.8517 10.0736 11.8434 10.0518 11.8423 10.0358C11.8404 10.0161 11.8314 9.99249 11.8566 9.98158C11.8858 9.96994 11.8858 10.0023 11.9001 10.0132C11.9432 10.0416 11.9931 10.0238 12.0392 10.0281C12.0804 10.0347 12.1299 10.0238 12.1146 10.0921C12.1536 10.087 12.1509 10.055 12.1719 10.0438C12.1959 10.0314 12.2267 10.0118 12.2447 10.0314C12.2612 10.0503 12.2597 10.0856 12.2597 10.1143C12.2604 10.1463 12.2323 10.1463 12.2083 10.1474C12.1652 10.1481 12.1217 10.1398 12.0928 10.1899C12.0789 10.2132 12.0482 10.2118 12.0223 10.191C11.9312 10.1216 11.8551 10.119 11.7677 10.1819C11.7426 10.2009 11.7152 10.2052 11.6631 10.1929ZM11.5513 10.1292C11.5678 10.0409 11.5839 9.97321 11.5794 9.90303C11.5779 9.87867 11.5866 9.86012 11.6087 9.86012C11.6462 9.86012 11.6286 9.88921 11.6259 9.90485C11.6169 9.97649 11.6057 10.0474 11.5933 10.119C11.5884 10.1434 11.5697 10.1598 11.5457 10.167C11.5221 10.1736 11.5067 10.1605 11.4924 10.1438C11.4362 10.0696 11.3507 10.0489 11.2697 10.0954C11.2427 10.111 11.2172 10.123 11.1771 10.1096C11.2318 10.0805 11.2716 10.0474 11.2461 9.98303C11.2412 9.97103 11.2517 9.9514 11.2674 9.94885C11.2866 9.94485 11.2896 9.96376 11.2914 9.97794C11.2956 10.0038 11.2993 10.0299 11.3327 10.0361C11.3488 10.039 11.3631 10.039 11.3739 10.0278C11.3829 10.0169 11.3698 10.0085 11.3631 9.9994C11.3132 9.92412 11.4163 9.94594 11.4317 9.90558C11.4441 9.87576 11.4842 9.90485 11.4849 9.93067C11.4864 9.96376 11.5877 9.99758 11.4879 10.031C11.5052 10.059 11.5232 10.0856 11.5513 10.1292ZM10.9018 9.77031C10.9427 9.74449 10.9884 9.73794 11.0173 9.75285C11.0406 9.76558 11.0121 9.80412 11.0049 9.83176C11.0034 9.83721 11.0008 9.84267 11.0004 9.84885C10.9948 9.88449 10.9494 9.9354 10.9926 9.95467C11.0567 9.98085 11.0229 9.90303 11.0473 9.88303C11.0578 9.87576 11.0721 9.87321 11.0919 9.86521C11.0901 9.88449 11.0908 9.8954 11.0893 9.90631C11.0826 9.93685 11.0503 9.9754 11.1088 9.98812C11.1636 10.0009 11.1538 9.96667 11.1538 9.93285C11.1542 9.9074 11.1861 9.90449 11.2093 9.9034C11.2112 9.9074 11.2142 9.9103 11.2134 9.91285C11.1752 10.0663 11.1999 10.0514 11.0439 10.015C11.0008 10.0059 10.9584 9.99285 10.9157 9.98012C10.8936 9.97503 10.8621 9.97794 10.8594 9.9474C10.8579 9.9154 10.8801 9.89503 10.9108 9.88267C10.9278 9.87876 10.9435 9.8709 10.9566 9.85976C10.9937 9.8183 10.9742 9.78194 10.9018 9.77031ZM12.3621 10.1489C12.2901 10.1307 12.3189 10.0805 12.3441 10.059C12.3932 10.0201 12.3939 9.97794 12.3741 9.92921C12.3632 9.90194 12.3752 9.88776 12.3962 9.88449C12.4221 9.88158 12.4176 9.90667 12.4198 9.9223C12.4258 9.96594 12.4296 10.0081 12.4356 10.051C12.4374 10.0743 12.4382 10.1023 12.4742 10.0929C12.5004 10.0859 12.5061 10.0685 12.4948 10.0459C12.4862 10.0259 12.4757 10.0045 12.5046 9.99721C12.5436 9.98812 12.5346 10.023 12.5413 10.0423C12.5649 10.1169 12.5282 10.1416 12.4566 10.1372C12.4288 10.1703 12.3932 10.1438 12.3621 10.1489ZM12.5488 10.1929C12.6047 10.1398 12.6441 10.1005 12.5848 10.047C12.5676 10.0332 12.5829 10.0063 12.6028 9.99758C12.6238 9.98994 12.6291 10.0132 12.6388 10.0274C12.6883 10.1063 12.6688 10.1587 12.5488 10.1929ZM11.6706 9.86194C11.6979 9.87612 11.7223 9.8834 11.7103 9.91321C11.6882 9.96485 11.6882 10.0198 11.6833 10.0729C11.6818 10.0914 11.6833 10.1194 11.6533 10.1136C11.6226 10.1081 11.6379 10.0823 11.6406 10.0649C11.6436 10.0299 11.6484 9.99649 11.6533 9.96267C11.6586 9.9314 11.6631 9.90049 11.6706 9.86194Z" fill="#BF9200"/>
<path id="Vector_22" fill-rule="evenodd" clip-rule="evenodd" d="M12.4528 10.1542C12.4708 10.1608 12.4891 10.175 12.4756 10.1917C12.4528 10.2168 12.4168 10.1964 12.3868 10.2008C12.3673 10.2048 12.3639 10.1804 12.3789 10.1637C12.401 10.1477 12.4273 10.152 12.4528 10.1542ZM12.7528 10.1015C12.7666 10.1124 12.779 10.1237 12.794 10.1335C12.7775 10.1702 12.7486 10.1739 12.7119 10.1677C12.7201 10.1404 12.7726 10.1415 12.7528 10.1015ZM12.3384 9.92369C12.3343 9.94005 12.3249 9.94368 12.3136 9.94005C12.3069 9.93823 12.299 9.92878 12.299 9.92514C12.2998 9.91096 12.3106 9.90514 12.3241 9.9095C12.3301 9.91168 12.3346 9.91859 12.3384 9.92369ZM12.3433 9.99241C12.3361 10.0008 12.3283 10.0106 12.3163 10.004C12.3058 9.9975 12.2971 9.98878 12.3046 9.97678C12.3106 9.96587 12.3193 9.9575 12.3316 9.96587C12.3418 9.97023 12.3493 9.97932 12.3433 9.99241ZM13.295 10.0488C13.2898 10.0648 13.2789 10.068 13.2665 10.067C13.2553 10.0655 13.2414 10.0604 13.2493 10.0455C13.2534 10.0379 13.2654 10.0313 13.2751 10.0299C13.2886 10.0284 13.2939 10.039 13.295 10.0488ZM10.9378 10.0277C10.931 10.0408 10.9224 10.0488 10.9093 10.0426C10.9033 10.039 10.8969 10.0291 10.8988 10.0226C10.9014 10.012 10.9126 10.0055 10.9246 10.012C10.931 10.0142 10.9344 10.023 10.9378 10.0277ZM11.1133 10.0757C11.1046 10.0811 11.0986 10.0888 11.093 10.0895C11.0788 10.0924 11.0705 10.0822 11.075 10.071C11.0773 10.0651 11.0878 10.06 11.0945 10.06C11.0994 10.0604 11.1046 10.0691 11.1133 10.0757ZM11.1399 9.59641C11.1655 9.59026 11.1923 9.5904 11.2178 9.59681C11.2434 9.60322 11.2668 9.61571 11.2861 9.63314C11.2321 9.6415 11.1853 9.62332 11.1399 9.59641ZM10.9265 9.53459C10.9503 9.52792 10.9756 9.52805 10.9994 9.53495C11.0231 9.54185 11.0443 9.55523 11.0604 9.5735C11.0135 9.58187 10.9738 9.56441 10.9265 9.53459ZM12.9046 9.62805C12.9463 9.59641 12.9969 9.58914 13.0475 9.58696C13.049 9.59423 13.052 9.60114 13.0539 9.60841L12.9121 9.64878L12.9046 9.62805ZM13.1188 9.57823C13.1608 9.53568 13.2031 9.52623 13.2639 9.52987C13.2449 9.54789 13.2221 9.56158 13.197 9.56994C13.1719 9.57831 13.1451 9.58114 13.1188 9.57823ZM11.5753 9.73714H11.8621C11.7683 9.76222 11.6691 9.76222 11.5753 9.73714ZM12.0215 9.03896C12.0166 9.03963 12.0117 9.04048 12.0069 9.0415L12.0298 8.88623C12.0421 8.95459 12.0481 8.99823 12.0215 9.03896ZM12.152 8.98587V8.90659C12.1738 8.92805 12.1648 8.94914 12.1685 8.96878C12.1771 8.98696 12.167 8.98878 12.152 8.98587Z" fill="#BF9200"/>
<path id="Vector_23" fill-rule="evenodd" clip-rule="evenodd" d="M12.1508 8.98584C12.1561 8.97996 12.1616 8.97426 12.1673 8.96875C12.1739 8.97645 12.1784 8.98555 12.1805 8.99529C12.1827 9.00504 12.1824 9.01513 12.1797 9.02475C12.1747 9.03009 12.1693 9.03507 12.1636 9.03966C12.149 9.02475 12.1478 9.00511 12.1508 8.98584ZM11.6566 9.67566C11.6038 9.68677 11.5493 9.68788 11.4961 9.67893C11.5523 9.63639 11.5985 9.63493 11.6566 9.67566ZM11.8482 9.68439C11.81 9.70184 11.7687 9.69929 11.7252 9.70184C11.7316 9.66802 11.7533 9.66984 11.7732 9.66984C11.7961 9.68111 11.8265 9.66148 11.8482 9.68439Z" fill="#BF9200"/>
<path id="Vector_24" fill-rule="evenodd" clip-rule="evenodd" d="M11.8484 9.68428C11.8226 9.68028 11.7952 9.68428 11.7734 9.66974C11.8034 9.66792 11.8323 9.6661 11.8612 9.6661C11.8691 9.6661 11.8788 9.67374 11.8649 9.68101C11.8608 9.68428 11.8541 9.68246 11.8484 9.68428ZM12.6791 9.6701C12.6321 9.68646 12.5813 9.68911 12.5328 9.67774C12.5849 9.62974 12.6311 9.64865 12.6791 9.6701ZM12.4181 9.66974C12.4361 9.6661 12.4511 9.67337 12.4724 9.69446C12.4288 9.70432 12.383 9.70076 12.3416 9.68428C12.3637 9.66137 12.3937 9.68101 12.4181 9.66974Z" fill="#BF9200"/>
<path id="Vector_25" fill-rule="evenodd" clip-rule="evenodd" d="M12.4209 9.66983C12.3973 9.68438 12.3703 9.68038 12.3444 9.68438C12.3369 9.68038 12.3043 9.68256 12.3298 9.66983C12.3527 9.65638 12.389 9.66802 12.4209 9.66983ZM11.6634 8.25893C11.6439 8.27311 11.6522 8.2942 11.6454 8.31165C11.6327 8.28838 11.624 8.26402 11.636 8.24002C11.6409 8.22838 11.6548 8.24147 11.6634 8.24729V8.25893ZM11.438 9.95638C11.4455 9.96438 11.4534 9.96911 11.4549 9.97565C11.4628 9.99347 11.447 9.99347 11.4365 9.99202C11.4305 9.99202 11.4212 9.9822 11.4219 9.97711C11.4227 9.97056 11.4305 9.96438 11.438 9.95638Z" fill="#BF9200"/>
</g>
</g>
<defs>
<clipPath id="clip0_1494_74428">
<rect width="24" height="16" fill="white"/>
</clipPath>
</defs>
</svg>
