<svg width="25" height="25" viewBox="0 0 25 25" fill="none" xmlns="http://www.w3.org/2000/svg">
<path d="M12.5 8.90012C11.788 8.90012 11.092 9.11126 10.4999 9.50683C9.90793 9.9024 9.44651 10.4646 9.17403 11.1225C8.90156 11.7803 8.83027 12.5041 8.96917 13.2024C9.10808 13.9008 9.45095 14.5422 9.95442 15.0457C10.4579 15.5492 11.0993 15.892 11.7977 16.0309C12.496 16.1699 13.2198 16.0986 13.8777 15.8261C14.5355 15.5536 15.0977 15.0922 15.4933 14.5002C15.8889 13.9082 16.1 13.2121 16.1 12.5001C16.1 11.5453 15.7207 10.6297 15.0456 9.95454C14.3705 9.27941 13.4548 8.90012 12.5 8.90012ZM12.5 6.50012C13.6867 6.50012 14.8467 6.85202 15.8334 7.5113C16.8201 8.17059 17.5892 9.10767 18.0433 10.204C18.4974 11.3004 18.6162 12.5068 18.3847 13.6707C18.1532 14.8345 17.5818 15.9036 16.7426 16.7428C15.9035 17.5819 14.8344 18.1533 13.6705 18.3848C12.5067 18.6163 11.3003 18.4975 10.2039 18.0434C9.10754 17.5893 8.17047 16.8202 7.51118 15.8335C6.85189 14.8468 6.5 13.6868 6.5 12.5001C6.5 10.9088 7.13214 9.3827 8.25736 8.25748C9.38258 7.13226 10.9087 6.50012 12.5 6.50012ZM20.3 6.20012C20.3 6.49679 20.212 6.7868 20.0472 7.03348C19.8824 7.28015 19.6481 7.47241 19.374 7.58594C19.0999 7.69947 18.7983 7.72918 18.5074 7.6713C18.2164 7.61342 17.9491 7.47056 17.7393 7.26078C17.5296 7.051 17.3867 6.78373 17.3288 6.49276C17.2709 6.20179 17.3006 5.90019 17.4142 5.6261C17.5277 5.35201 17.72 5.11774 17.9666 4.95292C18.2133 4.7881 18.5033 4.70012 18.8 4.70012C19.1978 4.70012 19.5794 4.85816 19.8607 5.13946C20.142 5.42077 20.3 5.8023 20.3 6.20012ZM12.5 2.90012C9.531 2.90012 9.046 2.90812 7.665 2.97012C6.92823 2.98054 6.19856 3.11579 5.507 3.37012C5.01548 3.54965 4.57102 3.83821 4.207 4.21412C3.83083 4.57813 3.54195 5.02257 3.362 5.51412C3.1075 6.20563 2.97224 6.93533 2.962 7.67212C2.907 8.99012 2.9 9.45312 2.9 12.5001C2.9 15.4691 2.908 15.9541 2.97 17.3351C2.98114 18.0712 3.11637 18.8001 3.37 19.4911C3.5572 19.9773 3.84416 20.4189 4.21239 20.7875C4.58062 21.1561 5.02197 21.4435 5.508 21.6311C6.20026 21.8854 6.93058 22.0207 7.668 22.0311C8.993 22.0931 9.456 22.1011 12.503 22.1011C15.472 22.1011 15.957 22.0931 17.338 22.0311C18.074 22.0197 18.8029 21.8845 19.494 21.6311C19.9847 21.4509 20.4289 21.1632 20.794 20.7891C21.1701 20.4251 21.459 19.9806 21.639 19.4891C21.8928 18.7967 22.028 18.0665 22.039 17.3291C22.101 16.0041 22.109 15.5411 22.109 12.4941C22.109 9.52512 22.101 9.04012 22.039 7.65912C22.0283 6.92238 21.8931 6.19275 21.639 5.50112C21.4586 5.01005 21.1701 4.56578 20.795 4.20112C20.4311 3.82477 19.9867 3.53585 19.495 3.35612C18.8035 3.10173 18.0738 2.96648 17.337 2.95612C16.01 2.90712 15.547 2.90012 12.5 2.90012ZM12.5 0.500122C15.76 0.500122 16.167 0.512122 17.446 0.572122C18.4418 0.592627 19.427 0.781283 20.36 1.13012C21.1614 1.43043 21.8871 1.90286 22.486 2.51412C23.0963 3.11385 23.5686 3.83934 23.87 4.64012C24.2184 5.57321 24.407 6.55834 24.428 7.55412C24.484 8.83312 24.5 9.24012 24.5 12.5001C24.5 15.7601 24.488 16.1671 24.428 17.4461C24.4069 18.4419 24.2183 19.427 23.87 20.3601C23.5622 21.1577 23.0909 21.882 22.4864 22.4865C21.8819 23.091 21.1576 23.5623 20.36 23.8701C19.4269 24.2185 18.4418 24.4071 17.446 24.4281C16.167 24.4841 15.76 24.5001 12.5 24.5001C9.24 24.5001 8.833 24.4881 7.554 24.4281C6.55823 24.407 5.57312 24.2184 4.64 23.8701C3.84244 23.5623 3.11812 23.091 2.51362 22.4865C1.90912 21.882 1.43781 21.1577 1.13 20.3601C0.78105 19.4272 0.59239 18.442 0.572 17.4461C0.516 16.1671 0.5 15.7601 0.5 12.5001C0.5 9.24012 0.512 8.83312 0.572 7.55412C0.59239 6.55828 0.78105 5.57305 1.13 4.64012C1.43045 3.83884 1.90287 3.11315 2.514 2.51412C3.11344 1.90349 3.83902 1.43115 4.64 1.13012C5.57293 0.781172 6.55815 0.592512 7.554 0.572122C8.833 0.516122 9.24 0.500122 12.5 0.500122Z" fill="#AAAAAA"/>
</svg>
