<svg width="24" height="16" viewBox="0 0 24 16" fill="none" xmlns="http://www.w3.org/2000/svg">
<g id="twemoji:flag-saudi-arabia" clip-path="url(#clip0_1494_74455)">
<path id="Vector" d="M21.3333 0H2.66667C1.95942 0 1.28115 0.25934 0.781049 0.720968C0.280952 1.1826 0 1.8087 0 2.46154L0 13.5385C0 14.1913 0.280952 14.8174 0.781049 15.279C1.28115 15.7407 1.95942 16 2.66667 16H21.3333C22.0406 16 22.7189 15.7407 23.219 15.279C23.719 14.8174 24 14.1913 24 13.5385V2.46154C24 1.8087 23.719 1.1826 23.219 0.720968C22.7189 0.25934 22.0406 0 21.3333 0Z" fill="#006C35"/>
<g id="Group">
<path id="Vector_2" d="M5.94388 5.56918C6.36521 5.60611 6.13254 4.91134 6.28521 4.78518C6.31388 4.72303 6.36721 4.72241 6.37121 4.80118V5.39072C6.36721 5.58272 6.50388 5.63872 6.60988 5.67872C6.72054 5.67072 6.79388 5.67441 6.83721 5.77349L6.88921 6.7938C6.88921 6.7938 7.14521 6.86149 7.15721 6.21964C7.16988 5.84303 7.07588 5.52795 7.13121 5.45472C7.13321 5.38272 7.23254 5.37841 7.30188 5.41349C7.41188 5.48488 7.46121 5.57349 7.63188 5.53841C7.89254 5.47257 8.04854 5.35564 8.05254 5.17103C8.03721 4.99564 8.01588 4.82026 7.93388 4.64488C7.94521 4.61288 7.88388 4.53041 7.89521 4.49841C7.94188 4.56611 8.01321 4.56057 8.02921 4.49841C7.98521 4.36364 7.91654 4.23441 7.80454 4.17841C7.71254 4.10334 7.57788 4.11872 7.52854 4.27503C7.50588 4.45472 7.59921 4.66888 7.74054 4.84303C7.77054 4.91134 7.81321 5.02457 7.79454 5.12672C7.71921 5.16611 7.64321 5.15011 7.58054 5.08857C7.58054 5.08857 7.37321 4.94518 7.37321 4.91318C7.42854 4.58826 7.38588 4.55134 7.35521 4.46149C7.33388 4.33718 7.26988 4.29718 7.21788 4.21226C7.16588 4.1618 7.09588 4.1618 7.06254 4.21226C6.97054 4.35872 7.01321 4.6738 7.07988 4.81472C7.12721 4.94395 7.20054 5.0258 7.16588 5.0258C7.13721 5.09903 7.07854 5.0818 7.03588 4.99749C6.97454 4.82272 6.96254 4.56241 6.96254 4.44488C6.94388 4.29964 6.92388 3.98888 6.82054 3.91011C6.75721 3.83072 6.66321 3.86888 6.63054 3.94211C6.62388 4.08611 6.62254 4.23072 6.64054 4.36426C6.71121 4.59749 6.73388 4.80303 6.76854 5.04241C6.77788 5.36303 6.56788 5.18149 6.57721 5.02272C6.62588 4.81657 6.61321 4.49164 6.56988 4.40918C6.53588 4.32734 6.49521 4.30641 6.41254 4.31995C6.34721 4.31503 6.17788 4.48611 6.12988 4.76918C6.12988 4.76918 6.08921 4.91503 6.07188 5.04488C6.04854 5.19134 5.94454 5.29472 5.87121 5.02457C5.80788 4.82826 5.76921 4.34395 5.66321 4.45718C5.63254 4.83564 5.59588 5.50149 5.94388 5.56918Z" fill="white"/>
<path id="Vector_3" d="M6.57894 5.84546C6.23227 5.85161 5.72494 6.26577 5.71094 6.49531C6.07627 6.33284 6.4356 6.17654 6.8076 6.00915C6.7476 5.92607 6.80427 5.85161 6.57894 5.84546Z" fill="white"/>
<path id="Vector_4" d="M8.49291 7.08666C8.65358 6.5925 8.46691 6.22819 8.55425 6.23004C8.73891 6.41404 8.99758 6.25466 9.05425 6.19066C9.07891 6.15866 9.13958 6.13773 9.18225 6.17958C9.32691 6.27558 9.58158 6.23004 9.63425 6.06143C9.66755 5.89207 9.68804 5.72079 9.69558 5.54881C9.57758 5.58266 9.48958 5.60543 9.48158 5.65035L9.45691 5.79681C9.44691 5.84419 9.34491 5.84604 9.34091 5.78573C9.29625 5.59804 9.11091 5.57343 8.99891 5.8645C8.92358 5.92112 8.78758 5.93219 8.77291 5.84789C8.79091 5.65281 8.70558 5.62635 8.53491 5.71804C8.48025 5.33096 8.42491 4.96112 8.37025 4.57404C8.44158 4.57219 8.50691 4.62081 8.57158 4.54573C8.50025 4.34081 8.34958 3.92235 8.26625 3.89219C8.22558 3.84666 8.19091 3.87496 8.13825 3.88666C8.04891 3.91312 7.96558 3.9845 7.99158 4.12296C8.09758 4.71681 8.16691 5.16912 8.27225 5.76296C8.28825 5.8325 8.22558 5.92419 8.14425 5.91496C8.00625 5.82881 7.97158 5.65404 7.73558 5.66143C7.56425 5.66327 7.36891 5.83435 7.34491 5.99989C7.31625 6.13096 7.30625 6.27373 7.34491 6.38881C7.46491 6.52173 7.60958 6.50881 7.73558 6.47866C7.83891 6.43927 7.92491 6.34327 7.96091 6.36604C7.98558 6.39373 7.96691 6.70943 7.47291 6.95189C7.17358 7.07558 6.93558 7.10389 6.80758 6.87866C6.72825 6.73773 6.81358 6.20235 6.61825 6.32666C6.04025 7.70204 7.97158 7.89281 8.18758 6.38327C8.20825 6.32112 8.28958 6.25896 8.30358 6.3605C8.25891 7.72789 6.80958 7.82204 6.56358 7.39189C6.50225 7.29035 6.48425 7.06512 6.47825 6.92973C6.44158 6.66081 6.28891 6.76419 6.26491 7.03066C6.24025 7.17896 6.24691 7.22081 6.24691 7.36296C6.32358 8.44296 8.19025 7.97896 8.49291 7.08666ZM7.77291 6.1525C7.76091 6.17343 7.70825 6.16481 7.66958 6.16481C7.62558 6.16296 7.60491 6.15619 7.57825 6.12358C7.56625 6.08666 7.60358 6.05158 7.62025 6.02389C7.64091 5.99127 7.75225 5.95743 7.79158 6.0485C7.79886 6.06579 7.80097 6.08457 7.79769 6.10286C7.7944 6.12116 7.78585 6.13831 7.77291 6.1525Z" fill="white"/>
<path id="Vector_5" d="M9.0675 4.9285C9.1835 4.88912 9.7335 4.30881 9.7335 4.30881C9.70484 4.28604 9.6795 4.26943 9.65084 4.24666C9.62017 4.22204 9.6235 4.19743 9.65084 4.17343C9.78684 4.1002 9.7435 3.93958 9.67217 3.86635C9.62603 3.84546 9.57524 3.8348 9.52385 3.83523C9.47246 3.83565 9.42189 3.84715 9.37617 3.86881C9.28084 3.95312 9.25817 4.0885 9.3335 4.17343C9.40684 4.20543 9.48017 4.27373 9.4315 4.31127C9.20684 4.53281 8.59084 4.91497 8.66217 4.9285C8.6775 4.94697 9.0555 4.94635 9.0675 4.9285ZM9.47484 4.01712C9.51017 4.00912 9.5555 4.03804 9.57684 4.08112C9.59817 4.1242 9.58684 4.16543 9.55217 4.17343H9.55084C9.51617 4.18143 9.47084 4.1525 9.4495 4.10943C9.42884 4.06574 9.44017 4.02512 9.47484 4.01712ZM5.9075 7.54327C5.81684 7.71373 5.77884 7.59681 5.77084 7.50143C5.76042 7.34124 5.76914 7.18047 5.79684 7.02204C5.8195 6.88666 5.79684 6.92789 5.75017 6.98266C5.54417 7.28543 5.52617 7.73835 5.64017 7.87312C5.70017 7.93712 5.7995 7.96543 5.8735 7.9445C6.00284 7.89281 6.0595 7.65035 6.02884 7.56235C5.98484 7.5002 5.95084 7.49035 5.9075 7.54327ZM12.6948 4.33835C12.9322 4.6325 13.1575 4.9322 13.3782 5.23743C13.4215 5.50204 13.4528 5.7605 13.4715 6.01712C13.5082 6.51189 13.5188 7.04727 13.4855 7.5685C13.5855 7.5722 13.7475 7.41835 13.8035 7.19374C13.8402 6.88297 13.7902 6.32973 13.7868 6.14635C13.7824 6.03141 13.7764 5.91653 13.7688 5.80174C14.0315 6.19804 14.2875 6.61281 14.5375 7.07374C14.6288 7.03435 14.6088 6.56297 14.5555 6.4965C14.3555 6.10081 14.0802 5.70943 13.9922 5.55927C13.9595 5.50389 13.8482 5.34635 13.7155 5.16604C13.7041 5.02213 13.6854 4.8788 13.6595 4.7365C13.6182 4.47312 13.7775 4.76543 13.7555 4.6122C13.7042 4.34881 13.5455 4.17097 13.3602 3.92973C13.3002 3.85158 13.3022 3.83558 13.2095 3.94881C13.1767 4.01665 13.1617 4.09063 13.1655 4.16481C13.1366 4.12554 13.1056 4.08755 13.0728 4.05097C12.9722 3.97083 12.8711 3.89124 12.7695 3.8122C12.7022 3.76789 12.5382 3.68789 12.5088 3.82081C12.4952 3.91398 12.5002 4.00868 12.5235 4.1002C12.5408 4.16604 12.6442 4.27558 12.6948 4.33835ZM13.1882 4.32358C13.2008 4.37466 13.2142 4.42574 13.2228 4.47804L13.2328 4.52789C13.2049 4.49181 13.1757 4.45652 13.1455 4.42204C13.0362 4.30266 13.1268 4.3285 13.1882 4.32358Z" fill="white"/>
<path id="Vector_6" d="M14.6132 7.19564C14.3812 7.41902 14.0466 7.6941 13.6826 7.82148C13.6432 7.8621 13.7799 8.03625 13.9559 8.03625C14.2512 8.00425 14.5112 7.85102 14.7519 7.44794C14.8166 7.35441 14.9299 7.15318 14.9326 6.99687C14.9546 6.08241 14.8832 5.37041 14.7346 4.70948C14.7246 4.65645 14.7274 4.60205 14.7426 4.5501C14.7612 4.52918 14.8266 4.5501 14.8612 4.49841C14.9112 4.45041 14.7272 4.05656 14.6219 3.90517C14.5846 3.83748 14.5719 3.79194 14.5099 3.91318C14.4446 4.01164 14.4012 4.18333 14.4066 4.34333C14.5472 5.24364 14.5906 6.03194 14.6826 6.93225C14.6899 7.01902 14.6759 7.14579 14.6132 7.19564ZM18.4999 4.91256C18.4899 4.84856 18.4592 4.69964 18.4712 4.68056C18.4899 4.63502 18.5866 4.68548 18.6212 4.63318C18.6719 4.58579 18.3719 4.2301 18.2672 4.07871C18.2292 4.01102 18.2166 3.96548 18.1546 4.08671C18.0892 4.18517 18.0666 4.36179 18.0926 4.51687C18.2492 5.49471 18.3659 6.22948 18.3899 7.09656C18.3759 7.17902 18.3732 7.22333 18.3312 7.32671C18.2386 7.43625 18.1366 7.57287 18.0399 7.63933C17.9439 7.70517 17.7392 7.76856 17.6719 7.81717C17.4606 7.93102 17.4599 8.06087 17.6319 8.06518C17.9266 8.03318 18.2759 8.01102 18.5166 7.67502C18.5812 7.58148 18.6579 7.32733 18.6612 7.17102C18.6832 6.25656 18.6486 5.57348 18.4999 4.91256ZM16.2659 5.67379C16.2686 5.54825 16.2812 5.3821 16.2886 5.2781C16.2919 5.23933 16.3019 5.19564 16.3419 5.18579C16.3826 5.17594 16.4546 5.22394 16.4552 5.18333C16.4472 5.10394 16.4299 4.98579 16.3812 4.92979C16.3146 4.83871 16.1379 4.86087 16.1066 5.00364C16.1072 5.05656 16.1332 5.08487 16.1286 5.13287C16.1206 5.15994 16.0899 5.17841 16.0172 5.14641C16.0292 5.13656 15.9699 5.06087 15.9699 5.06087C15.9132 5.02887 15.8372 5.06271 15.7886 5.09164C15.771 5.12266 15.7605 5.1567 15.7577 5.19164C15.755 5.22658 15.76 5.26166 15.7726 5.29471C15.8526 5.43441 16.1319 5.67133 16.2659 5.67379Z" fill="white"/>
<path id="Vector_7" d="M16.1701 4.60357C16.3655 4.82449 16.5648 5.04849 16.7655 5.27618C16.8088 5.78449 16.8201 6.20049 16.8628 6.7088C16.8568 6.92418 16.7848 7.11187 16.7161 7.13895C16.7161 7.13895 16.6128 7.19433 16.5435 7.13341C16.4928 7.11433 16.2908 6.82264 16.2908 6.82264C16.1875 6.73526 16.1195 6.75987 16.0461 6.82264C15.8435 7.00295 15.7521 7.34141 15.6148 7.57403C15.5788 7.62634 15.4788 7.67064 15.3675 7.57033C15.0855 7.21403 15.2508 6.70757 15.2161 6.83803C14.9648 7.09957 15.0755 7.53218 15.1321 7.62572C15.2148 7.77834 15.2821 7.8768 15.4435 7.95249C15.5901 8.05218 15.7048 7.98941 15.7675 7.91987C15.9155 7.77772 15.9175 7.41772 15.9868 7.3451C16.0348 7.21403 16.1581 7.23618 16.2175 7.29464C16.2718 7.36542 16.3439 7.42306 16.4275 7.46264C16.5655 7.57526 16.7301 7.59557 16.8921 7.4928C17.0028 7.43557 17.0755 7.3611 17.1401 7.21403C17.2121 7.0368 17.1728 6.22203 17.1581 5.73341C17.2615 5.85649 17.3621 5.9851 17.4641 6.11372C17.5088 6.52172 17.5341 6.92787 17.5195 7.34264C17.5088 7.42572 17.8328 7.09649 17.8301 6.94018C17.8288 6.81403 17.8301 6.69957 17.8301 6.59187C17.9861 6.80849 18.1381 7.03187 18.2808 7.26818C18.3701 7.2251 18.3408 6.76049 18.2841 6.69649C18.1195 6.44172 17.9001 6.17649 17.7488 5.98695C17.7388 5.96295 17.7335 5.93587 17.7215 5.9131C17.6608 5.78326 17.6988 5.67864 17.6701 5.5408C17.6421 5.40233 17.6495 5.19557 17.6061 5.03126C17.5941 4.96726 17.5581 4.76172 17.5688 4.74264C17.5861 4.69649 17.6528 4.74387 17.6855 4.69095C17.7341 4.64172 17.5168 4.12172 17.4061 3.9728C17.3661 3.90634 17.2941 3.9291 17.2048 4.03741C17.1228 4.1088 17.1535 4.27126 17.1848 4.42572C17.2628 4.79987 17.3281 5.15864 17.3841 5.51372C17.2643 5.3666 17.1432 5.22034 17.0208 5.07495L17.0155 5.04787C17.0155 5.0411 16.9975 4.72541 16.9815 4.65034C16.9788 4.62018 16.9708 4.61095 17.0055 4.61464C17.0421 4.64295 17.0468 4.6448 17.0701 4.65464C17.1075 4.6608 17.1401 4.60234 17.1181 4.5488L16.7735 3.96295C16.7461 3.93772 16.7101 3.91064 16.6668 3.96972C16.6399 3.99141 16.6184 4.01819 16.6036 4.04823C16.5889 4.07828 16.5814 4.1109 16.5815 4.14387C16.5921 4.28234 16.6181 4.42387 16.6281 4.56295L16.6428 4.63803C16.6275 4.62141 16.6088 4.60049 16.6008 4.5931C16.3081 4.3088 16.7355 4.54695 16.5448 4.32726C16.3835 4.16357 16.3368 4.11249 16.1981 4.01403C16.1288 3.9728 16.0868 3.89403 16.0641 4.02818C16.0527 4.14582 16.0494 4.264 16.0541 4.38203C16.0541 4.43864 16.1161 4.54203 16.1701 4.60357ZM10.2361 5.26757C10.4041 5.33157 10.5115 5.03618 10.5808 4.71249C10.6275 4.62141 10.6635 4.61157 10.6875 4.65833C10.6815 5.0891 10.7208 5.18449 10.8408 5.31557C11.1081 5.50633 11.3295 5.33957 11.3475 5.32357L11.5555 5.13157C11.6015 5.08664 11.6635 5.08357 11.7288 5.12357C11.7928 5.17649 11.7841 5.2688 11.9201 5.3328C12.0348 5.37526 12.2801 5.34264 12.3368 5.25157C12.4135 5.13095 12.4321 5.0891 12.4668 5.04357C12.5215 4.97649 12.6148 5.00664 12.6148 5.02757C12.6061 5.0651 12.5515 5.10264 12.5888 5.16972C12.6541 5.21464 12.6688 5.18572 12.7075 5.17587C12.8435 5.11557 12.9448 4.84357 12.9448 4.84357C12.9508 4.74203 12.8895 4.75064 12.8495 4.77157C12.7975 4.80049 12.7941 4.81033 12.7421 4.83987C12.6755 4.8491 12.5468 4.88972 12.4835 4.79864C12.4181 4.6891 12.4168 4.53649 12.3675 4.42633C12.3675 4.41833 12.2808 4.25218 12.3615 4.24172C12.4021 4.24849 12.4881 4.26941 12.5021 4.20295C12.5441 4.13772 12.4108 3.95187 12.3201 3.85772C12.2408 3.77772 12.1308 3.76787 12.0248 3.84972C11.9501 3.9131 11.9608 3.98326 11.9461 4.05033C11.934 4.09767 11.9341 4.14696 11.9462 4.19429C11.9584 4.24161 11.9823 4.28567 12.0161 4.32295C12.0901 4.45772 12.2255 4.63187 12.1808 4.87557C12.1808 4.87557 12.1021 4.99126 11.9641 4.97649C11.9068 4.9648 11.8135 4.94203 11.7641 4.60357C11.7268 4.34695 11.7735 3.98818 11.6555 3.82018C11.6128 3.71864 11.5821 3.6208 11.4781 3.79434C11.4501 3.86264 11.3301 3.96603 11.4175 4.17957C11.4888 4.31433 11.5175 4.53403 11.4855 4.77895C11.4361 4.84849 11.4255 4.87187 11.3608 4.94141C11.2701 5.03126 11.1721 5.00849 11.0968 4.97464C11.0261 4.93095 10.9715 4.90818 10.9395 4.7691C10.9455 4.54757 10.9588 4.18449 10.9148 4.10757C10.8501 3.98818 10.7435 4.03126 10.6975 4.06757C10.4781 4.2528 10.3701 4.5648 10.3041 4.8128C10.2435 4.99372 10.1788 4.94203 10.1335 4.8688C10.0228 4.7728 10.0155 4.02387 9.88148 4.14757C9.66615 4.71003 10.0028 5.32787 10.2361 5.26757Z" fill="white"/>
<path id="Vector_8" d="M13.4256 6.47617L13.3616 6.44233L12.1076 6.43679C12.0429 6.41402 12.0622 6.39433 12.1076 6.37833C12.4069 6.34079 12.9396 6.26079 12.9749 5.78879C12.9689 5.54325 12.8602 5.38202 12.5336 5.33771C12.2942 5.35494 12.1229 5.56971 12.1502 5.8054C12.1389 5.8694 12.1729 5.99371 12.1029 6.00787C11.6422 6.04663 11.1402 6.31248 11.1236 6.50325C11.0956 6.5211 11.0329 6.4694 11.0409 6.38817C11.0187 6.0407 10.9104 5.70258 10.7242 5.39987C10.5789 5.26571 10.6242 5.31002 10.5269 5.3734C10.4642 5.43987 10.4529 5.4854 10.4562 5.61771C10.4562 5.62263 10.5736 5.92479 10.6729 6.13648C10.7389 6.35371 10.8009 6.60171 10.7562 6.83617C10.6016 7.14633 10.2902 7.42448 9.99024 7.57525C9.83557 7.6214 9.70291 7.60479 9.67024 7.57279C9.57491 7.51371 9.57957 7.40479 9.58691 7.40294C9.83957 7.23987 10.1289 7.10879 10.3556 6.67002C10.4222 6.50263 10.4422 6.4011 10.3762 6.14202C10.3579 6.05072 10.3124 5.96592 10.2449 5.8971C10.2856 5.87248 10.4022 5.95433 10.4202 5.90571C10.3864 5.7639 10.31 5.63378 10.1996 5.53033C10.1096 5.45463 10.0116 5.44602 9.92891 5.51556C9.83557 5.56356 9.81557 5.73463 9.86024 5.88479C9.90957 5.99802 10.0436 6.0171 10.1396 6.24417C10.1396 6.2491 10.1742 6.41402 10.1249 6.47863C10.0856 6.59187 9.57557 6.96171 9.54757 6.97833C9.53357 6.99433 9.53957 6.97033 9.53757 6.90879C9.53424 6.83371 9.57024 6.65648 9.56024 6.65525C9.39424 6.75433 9.33891 7.05771 9.30891 7.14756C8.88891 7.41525 8.41357 7.61464 8.13891 7.88664C7.99557 8.09279 9.12424 7.64971 9.25557 7.59617C9.28491 7.61587 9.28157 7.70879 9.36024 7.79187C9.47757 7.93833 9.72557 8.02879 9.96891 7.97279C10.3756 7.83679 10.6109 7.58079 10.8496 7.2971C10.8836 7.25094 10.9369 7.21587 10.9862 7.25094C11.1502 7.59002 11.6242 7.83002 12.2356 7.85525C12.3776 7.69587 12.3089 7.61894 12.2516 7.58571C12.2516 7.58079 11.9496 7.47494 11.9036 7.3691C11.8756 7.2731 11.9436 7.18879 12.0796 7.12479C12.4722 7.0811 12.8582 7.03248 13.2322 6.92171C13.2362 6.80602 13.3089 6.63248 13.3589 6.5574C13.4069 6.4811 13.4329 6.50387 13.4256 6.47617ZM12.3942 5.75494C12.4129 5.72602 12.4749 5.72725 12.5329 5.75863C12.5909 5.7894 12.6236 5.83863 12.6042 5.86756C12.5856 5.8971 12.5229 5.89525 12.4649 5.86387C12.4069 5.8331 12.3756 5.78448 12.3942 5.75494ZM11.8896 6.92417C11.7549 6.96664 11.6256 6.99987 11.6256 7.17956C11.6756 7.4294 11.5569 7.34387 11.4869 7.3094C11.4042 7.25464 11.1716 7.12233 11.1382 6.83679C11.1329 6.76848 11.1909 6.71125 11.2836 6.71125C11.4229 6.74633 11.6289 6.74879 11.8076 6.76602C11.9536 6.77463 12.0262 6.88048 11.8896 6.92417ZM7.24491 4.15187C7.38891 4.21587 7.66091 4.18879 7.64891 3.9734C7.64891 3.95433 7.64357 3.89033 7.64157 3.8731C7.61224 3.80971 7.53224 3.8251 7.51357 3.89094C7.50757 3.91248 7.52357 3.94694 7.50291 3.95802C7.49091 3.9691 7.44491 3.96233 7.44691 3.90325C7.44691 3.88417 7.43157 3.86387 7.42291 3.85217C7.41357 3.84663 7.40824 3.84479 7.39157 3.84479C7.37157 3.8454 7.37157 3.85033 7.36091 3.86633C7.35624 3.88171 7.34957 3.89771 7.34957 3.91556C7.34691 3.93648 7.33824 3.94387 7.32157 3.94756C7.30291 3.94756 7.30691 3.9494 7.29224 3.94017C7.28291 3.93094 7.27157 3.92725 7.27157 3.91187C7.27152 3.89388 7.26837 3.87602 7.26224 3.85894C7.25424 3.8491 7.24157 3.84479 7.22691 3.8411C7.14824 3.8411 7.14291 3.92417 7.14757 3.95617C7.14024 3.96171 7.13757 4.11063 7.24491 4.15187Z" fill="white"/>
<path id="Vector_9" d="M11.6764 5.55504C11.6764 5.53597 11.6611 5.51627 11.6524 5.50397C11.6431 5.49843 11.6377 5.49658 11.6211 5.49658C11.6011 5.4972 11.6017 5.50212 11.5904 5.51812C11.5857 5.53412 11.5791 5.5495 11.5791 5.56735C11.5771 5.58889 11.5677 5.59627 11.5511 5.59935C11.5324 5.59935 11.5364 5.6012 11.5211 5.59258C11.5117 5.58335 11.5004 5.57966 11.5004 5.56427C11.5004 5.54628 11.4973 5.52841 11.4911 5.51135C11.4831 5.5015 11.4704 5.4972 11.4557 5.49412C11.3771 5.49412 11.3717 5.5772 11.3757 5.60858C11.3697 5.61473 11.3664 5.76304 11.4737 5.80489C11.6184 5.86827 11.9617 5.83135 11.8777 5.62643C11.8763 5.59273 11.8739 5.55907 11.8704 5.5255C11.8411 5.46212 11.7604 5.47812 11.7424 5.54335C11.7371 5.56489 11.7531 5.59935 11.7317 5.61043C11.7211 5.6215 11.6744 5.61473 11.6764 5.55504ZM13.9411 5.11996C14.0851 5.18396 14.3564 5.15689 14.3444 4.94212C14.343 4.90842 14.3406 4.87477 14.3371 4.8412C14.3077 4.77781 14.2277 4.79381 14.2097 4.85904C14.2037 4.88058 14.2197 4.91504 14.1984 4.92612C14.1864 4.9372 14.1404 4.93104 14.1424 4.87135C14.1424 4.85227 14.1271 4.83197 14.1184 4.82027C14.1091 4.81473 14.1037 4.81289 14.0864 4.81289C14.0664 4.81412 14.0671 4.81843 14.0557 4.83443C14.0511 4.85043 14.0444 4.86581 14.0444 4.88366C14.0417 4.9052 14.0331 4.91258 14.0164 4.91566C13.9977 4.91566 14.0017 4.9175 13.9864 4.90889C13.9771 4.89966 13.9664 4.89596 13.9664 4.88058C13.9663 4.86239 13.9632 4.84433 13.9571 4.82704C13.9484 4.8172 13.9364 4.81289 13.9211 4.80981C13.8424 4.80981 13.8371 4.89289 13.8417 4.92427C13.8371 4.93043 13.8337 5.07873 13.9411 5.11996ZM14.0384 4.28797C14.0897 4.42089 13.9991 4.54766 14.0531 4.56612C14.1017 4.58704 14.1711 4.42889 14.1964 4.28304C14.2264 4.16489 14.1351 3.92304 14.0057 3.8732C13.9271 3.85596 13.8151 3.89904 13.8511 3.99627C13.8331 4.04304 14.0097 4.20181 14.0384 4.28797ZM15.3684 7.40427C15.4691 7.40489 15.5851 7.19196 15.6344 6.98089C15.6617 6.69043 15.6157 6.51381 15.6077 6.34273C15.5991 6.17227 15.3991 4.87073 15.3577 4.7415C15.3091 4.4972 15.5531 4.70889 15.5264 4.56673C15.4417 4.38766 15.2317 4.12735 15.1651 3.97166C15.1251 3.9052 15.1424 3.84612 15.0531 3.95443C14.9711 4.20366 14.9424 4.40673 14.9737 4.56181C15.1857 5.58335 15.4031 6.43258 15.3684 7.40427ZM17.8724 4.7335C17.8957 4.79997 17.8371 5.01473 17.8857 5.03443C17.9304 5.05658 17.9931 4.88612 18.0164 4.72796C18.0291 4.6412 17.9604 4.33843 17.8424 4.28427C17.7704 4.26581 17.6684 4.31196 17.7017 4.41781C17.6851 4.46889 17.8464 4.63997 17.8724 4.7335ZM9.1264 6.98335C9.16974 6.99996 9.22907 6.87443 9.25174 6.75812C9.2644 6.69412 9.19774 6.47196 9.08507 6.43196C9.01574 6.41843 8.92107 6.43566 8.9504 6.53043C8.94707 6.5815 9.10374 6.64304 9.11307 6.76181C9.13574 6.81104 9.07974 6.9692 9.1264 6.98335ZM6.08907 4.14335C6.11107 4.19443 6.06707 4.3575 6.11307 4.37289C6.15507 4.39012 6.2144 4.25966 6.2364 4.13966C6.24907 4.0732 6.23907 3.84797 6.0724 3.80181C6.00374 3.78766 5.9084 3.82273 5.93974 3.90335C5.92374 3.9415 6.0644 4.07196 6.08907 4.14335ZM9.35707 4.8652C9.22974 4.9292 9.17974 5.11873 9.25974 5.22889C9.33374 5.32673 9.45107 5.29043 9.46707 5.29043C9.5924 5.30458 9.6664 5.07381 9.6664 5.07381C9.6664 5.07381 9.6704 5.0092 9.52174 5.13166C9.45907 5.14273 9.45107 5.1212 9.43574 5.08796C9.42056 5.02774 9.42735 4.96457 9.45507 4.90827C9.4764 4.85104 9.4284 4.82581 9.35707 4.8652ZM10.3184 4.15566C10.339 4.14394 10.3566 4.12834 10.3701 4.10988C10.3837 4.09143 10.3929 4.07054 10.3971 4.04858C10.4164 3.95873 10.2937 4.09104 10.2784 3.99073C10.2511 3.89781 10.3297 3.85966 10.4044 3.76981C10.4071 3.70766 10.4057 3.66397 10.3144 3.71443C10.2504 3.75443 10.1224 3.87627 10.1184 4.01658C10.1144 4.09597 10.0984 4.09535 10.1551 4.14581C10.1957 4.20058 10.2364 4.19504 10.3184 4.15566ZM11.1844 4.20366C11.2671 3.99689 11.2671 3.9095 11.2731 3.8215C11.2477 3.68797 11.1497 3.69227 11.0851 3.84058C11.0571 3.89658 11.0244 4.19135 11.0297 4.19135C11.0077 4.27935 11.1291 4.31689 11.1844 4.20366ZM16.6311 5.67012C16.6311 5.67012 15.9624 6.10889 15.9464 6.12427C15.8797 6.17843 15.9131 6.37043 15.9464 6.34827C15.9937 6.3655 16.6664 5.94397 16.6531 5.89473C16.6844 5.89597 16.6997 5.64796 16.6311 5.67012ZM16.5491 6.86027C16.5937 6.88243 16.7117 6.74766 16.7071 6.57966C16.7204 6.49289 16.6731 6.17473 16.5557 6.12058C16.4837 6.10212 16.3877 6.15873 16.4211 6.26396C16.4044 6.31443 16.5037 6.49104 16.5297 6.58458C16.5531 6.65166 16.5004 6.84058 16.5491 6.86027ZM12.7624 7.78089C12.7624 7.78643 12.8191 7.83135 12.8857 7.79566C13.0257 7.74581 13.1137 7.69781 13.3097 7.65781C13.3611 7.6572 13.3577 7.52981 13.2764 7.5255C13.1704 7.53043 13.0717 7.53535 12.9657 7.61289C12.9004 7.62643 12.8897 7.59012 12.8751 7.55689C12.8591 7.47504 12.9117 7.41843 12.9004 7.3575C12.9044 7.3612 12.8397 7.30643 12.7737 7.3372C12.7704 7.3372 12.6264 7.42704 12.5804 7.48981C12.5517 7.51012 12.5551 7.52735 12.5637 7.5612C12.5857 7.60797 12.6251 7.59381 12.6691 7.57166C12.7277 7.56427 12.7557 7.59996 12.7511 7.66458C12.7231 7.74643 12.7624 7.77658 12.7624 7.78089ZM17.1297 7.88304C17.1077 7.91812 17.0931 7.97104 17.1611 7.98766C17.2864 8.02027 17.5751 7.84673 17.5751 7.84366C17.6217 7.81104 17.6064 7.75012 17.6024 7.75012C17.5751 7.7212 17.5137 7.73781 17.4724 7.7335C17.4531 7.7335 17.3877 7.72427 17.4191 7.67135C17.4411 7.64282 17.4586 7.61153 17.4711 7.57843C17.4904 7.53843 17.4737 7.51197 17.4031 7.49043C17.3317 7.47812 17.3031 7.48427 17.2237 7.49043C17.1811 7.49904 17.1664 7.51627 17.1584 7.56427C17.1617 7.63689 17.2091 7.6332 17.2584 7.66212C17.2871 7.69596 17.3057 7.72673 17.2564 7.7815C17.2097 7.8215 17.1771 7.84366 17.1297 7.88304ZM17.0017 11.0769H16.0017V10.7692C16.0017 10.6876 15.9666 10.6093 15.9041 10.5516C15.8416 10.4939 15.7568 10.4615 15.6684 10.4615C15.58 10.4615 15.4952 10.4939 15.4327 10.5516C15.3702 10.6093 15.3351 10.6876 15.3351 10.7692V11.0769H7.33507C7.33507 11.0769 7.33507 11.6923 9.33507 11.6923H15.3351V12C15.3351 12.0816 15.3702 12.1598 15.4327 12.2175C15.4952 12.2752 15.58 12.3077 15.6684 12.3077C15.7568 12.3077 15.8416 12.2752 15.9041 12.2175C15.9666 12.1598 16.0017 12.0816 16.0017 12V11.6923H16.6684V12C16.6684 12.0816 16.7035 12.1598 16.766 12.2175C16.8285 12.2752 16.9133 12.3077 17.0017 12.3077C17.0901 12.3077 17.1749 12.2752 17.2374 12.2175C17.2999 12.1598 17.3351 12.0816 17.3351 12V11.3846C17.3351 11.303 17.2999 11.2247 17.2374 11.167C17.1749 11.1093 17.0901 11.0769 17.0017 11.0769Z" fill="white"/>
</g>
</g>
<defs>
<clipPath id="clip0_1494_74455">
<rect width="24" height="16" fill="white"/>
</clipPath>
</defs>
</svg>
