<svg width="25" height="25" viewBox="0 0 25 25" fill="none" xmlns="http://www.w3.org/2000/svg">
<path d="M20.947 20.9522H17.393V15.3832C17.393 14.0552 17.366 12.3462 15.54 12.3462C13.688 12.3462 13.405 13.7912 13.405 15.2862V20.9532H9.851V9.50015H13.264V11.0602H13.311C13.6536 10.4763 14.1479 9.99616 14.7414 9.67062C15.3349 9.34507 16.0055 9.1863 16.682 9.21115C20.282 9.21115 20.949 11.5822 20.949 14.6662V20.9532L20.947 20.9522ZM5.837 7.93315C5.42865 7.93335 5.02942 7.81242 4.68982 7.58565C4.35023 7.35889 4.08552 7.03649 3.92921 6.65924C3.7729 6.282 3.732 5.86686 3.81168 5.46636C3.89137 5.06587 4.08807 4.69801 4.37689 4.40933C4.6657 4.12066 5.03366 3.92414 5.43419 3.84464C5.83473 3.76515 6.24984 3.80625 6.62701 3.96275C7.00418 4.11924 7.32646 4.3841 7.55306 4.72381C7.77966 5.06352 7.9004 5.46281 7.9 5.87115C7.90026 6.14223 7.84705 6.41069 7.7434 6.66117C7.63976 6.91165 7.48772 7.13922 7.29599 7.33086C7.10427 7.52249 6.87662 7.67442 6.62609 7.77794C6.37557 7.88146 6.10708 7.93455 5.836 7.93415L5.837 7.93315ZM7.618 20.9522H4.055V9.50015H7.62V20.9522H7.618ZM22.727 0.500154H2.272C2.04206 0.497115 1.81378 0.539449 1.60023 0.624734C1.38667 0.71002 1.19203 0.836581 1.02744 0.997176C0.862851 1.15777 0.731547 1.34925 0.641042 1.56064C0.550538 1.77204 0.502609 1.99921 0.5 2.22915V22.7712C0.50261 23.001 0.550506 23.2281 0.640948 23.4394C0.73139 23.6508 0.862604 23.8422 1.02709 24.0028C1.19157 24.1634 1.38609 24.2899 1.59953 24.3753C1.81298 24.4606 2.04115 24.5031 2.271 24.5002H22.721C23.186 24.5063 23.6345 24.3277 23.9681 24.0036C24.3016 23.6794 24.4929 23.2362 24.5 22.7712V2.22915C24.4929 1.76412 24.3016 1.3209 23.9681 0.996751C23.6345 0.672603 23.186 0.494007 22.721 0.500154H22.727Z" fill="#AAAAAA"/>
</svg>
