<svg width="27" height="32" viewBox="0 0 27 32" fill="none" xmlns="http://www.w3.org/2000/svg">
<path opacity="0.5" d="M13.5 32.0034C20.9558 32.0034 27 25.864 27 18.2908C27 10.7175 20.9558 4.57812 13.5 4.57812C6.04416 4.57812 0 10.7175 0 18.2908C0 25.864 6.04416 32.0034 13.5 32.0034Z" fill="#FD5664"/>
<path d="M13.5004 11.0391C14.1218 11.0391 14.6255 11.5507 14.6255 12.1818V18.2767C14.6255 18.9079 14.1218 19.4195 13.5004 19.4195C12.8791 19.4195 12.3754 18.9079 12.3754 18.2767V12.1818C12.3754 11.5507 12.8791 11.0391 13.5004 11.0391Z" fill="#FD5664"/>
<path fill-rule="evenodd" clip-rule="evenodd" d="M9.37384 1.14279C9.37384 0.511643 9.87755 0 10.4989 0H16.4993C17.1206 0 17.6243 0.511643 17.6243 1.14279C17.6243 1.77393 17.1206 2.28557 16.4993 2.28557H10.4989C9.87755 2.28557 9.37384 1.77393 9.37384 1.14279Z" fill="#FD5664"/>
</svg>
